<svg width="75" height="69" viewBox="0 0 75 69" fill="none" xmlns="http://www.w3.org/2000/svg">
<path d="M74.26 25.38V63.81C74.2574 64.9417 73.8066 66.0262 73.0064 66.8265C72.2062 67.6267 71.1217 68.0774 69.99 68.08H4.27001C3.13834 68.0774 2.05378 67.6267 1.25357 66.8265C0.453364 66.0262 0.0026433 64.9417 2.30264e-06 63.81V25.38C-0.000567751 24.835 0.104712 24.295 0.31 23.79C0.632116 22.9944 1.18549 22.3137 1.89858 21.836C2.61166 21.3582 3.45167 21.1053 4.31 21.11H70.03C70.8886 21.104 71.7292 21.3563 72.4426 21.8342C73.1559 22.3122 73.709 22.9936 74.03 23.79C74.208 24.3004 74.2861 24.8402 74.26 25.38Z" fill="#2772FF"/>
<path opacity="0.3" d="M73.9505 23.7901L38.8806 52.9001C38.3879 53.3065 37.7692 53.5287 37.1306 53.5287C36.4919 53.5287 35.8732 53.3065 35.3806 52.9001L0.310547 23.7901C0.632663 22.9944 1.18604 22.3138 1.89912 21.836C2.61221 21.3582 3.45222 21.1053 4.31055 21.11H70.0305C70.8755 21.1199 71.6987 21.3796 72.3963 21.8566C73.0939 22.3335 73.6347 23.0063 73.9505 23.7901Z" fill="black"/>
<path d="M48.5591 0.610046H13.6191V34.83L35.3792 52.9C35.8718 53.3065 36.4905 53.5287 37.1292 53.5287C37.7678 53.5287 38.3865 53.3065 38.8792 52.9L60.6491 34.83V8.26005L48.5591 0.610046Z" fill="white"/>
<path d="M35.3117 52.9775L35.3095 52.9756L13.5523 34.878C13.552 34.8778 13.5517 34.8775 13.5514 34.8773C13.5386 34.8662 13.5282 34.8525 13.5211 34.8372C13.5139 34.8218 13.51 34.805 13.5098 34.788V0.610039C13.5098 0.580866 13.5214 0.552886 13.542 0.532257C13.5626 0.511628 13.5906 0.500038 13.6198 0.500038L48.5598 0.500071L48.5655 0.500006C48.5827 0.499809 48.5997 0.504575 48.6143 0.513739L60.7532 8.14306C60.7678 8.15224 60.7798 8.16506 60.7879 8.18025C60.7961 8.19546 60.8002 8.21251 60.7999 8.22972L60.7998 8.22972V8.24004V34.8279C60.7996 34.8449 60.7957 34.8617 60.7885 34.8772C60.7813 34.8924 60.7711 34.906 60.7584 34.917C60.758 34.9173 60.7576 34.9177 60.7572 34.918L38.9509 52.9749L38.9478 52.9775C38.439 53.4058 37.7952 53.6405 37.1301 53.64H37.1295C36.4644 53.6405 35.8206 53.4058 35.3117 52.9775ZM13.7198 34.54V34.7748L13.9004 34.9247L35.4504 52.8147L35.4505 52.8148C35.9225 53.2064 36.5165 53.4207 37.1298 53.4207C37.7431 53.4207 38.337 53.2064 38.809 52.8148L38.8091 52.8147L60.3591 34.9247L60.5398 34.7748V34.54V8.54004V8.26214L60.3038 8.11541L48.5938 0.835411L48.4725 0.760041H48.3298H14.2198H13.7198V1.26004V34.54Z" stroke="#EBF0F9"/>
<path d="M46.6494 33.01H49.4094C48.4048 34.7729 46.9113 36.2073 45.1094 37.14C42.7436 38.3339 40.1183 38.9215 37.4694 38.85C34.9643 38.9231 32.4753 38.4274 30.1894 37.4C28.2869 36.54 26.7571 35.0244 25.8794 33.13C25.0241 31.2033 24.6797 29.0886 24.8794 26.99C25.0641 24.5739 25.8365 22.2395 27.1294 20.19C28.3556 18.1752 30.1179 16.541 32.2194 15.47C34.3942 14.3952 36.7937 13.8535 39.2194 13.89C41.1972 13.8476 43.156 14.2833 44.9294 15.16C46.4941 15.9424 47.7613 17.2132 48.5394 18.78C49.3379 20.362 49.684 22.1338 49.5394 23.9C49.3727 26.1168 48.496 28.2208 47.0394 29.9C46.2382 30.949 45.2063 31.7995 44.0237 32.3856C42.841 32.9718 41.5393 33.2778 40.2194 33.28C39.6629 33.3194 39.1079 33.1867 38.6294 32.9C38.4552 32.7682 38.3089 32.603 38.199 32.4142C38.0892 32.2254 38.0179 32.0166 37.9894 31.8C37.0046 32.7387 35.6998 33.2678 34.3394 33.28C33.6882 33.304 33.0399 33.1828 32.4414 32.925C31.843 32.6673 31.3094 32.2796 30.8794 31.79C30.4253 31.2378 30.092 30.5965 29.9008 29.9076C29.7096 29.2186 29.6649 28.4973 29.7694 27.79C29.9187 25.7631 30.6631 23.8255 31.9094 22.22C32.5181 21.2969 33.3424 20.5359 34.3111 20.0028C35.2798 19.4696 36.3638 19.1804 37.4694 19.16C38.1271 19.1091 38.7857 19.2478 39.3671 19.5597C39.9484 19.8717 40.4282 20.3438 40.7494 20.92L41.1794 19.48H44.6094L41.9294 28.79C41.8083 29.162 41.718 29.5433 41.6594 29.93C41.63 30.1015 41.6696 30.2776 41.7694 30.42C41.8127 30.4704 41.8664 30.5108 41.9268 30.5384C41.9872 30.566 42.0529 30.5802 42.1194 30.58C42.7337 30.4961 43.3104 30.2356 43.7794 29.83C44.7509 29.1334 45.5539 28.2279 46.1294 27.18C46.7407 26.128 47.1097 24.9528 47.2094 23.74C47.3177 22.765 47.204 21.7781 46.8767 20.8533C46.5494 19.9285 46.0169 19.0898 45.3194 18.4C43.8194 16.9734 41.686 16.26 38.9194 16.26C36.8066 16.206 34.7158 16.6986 32.8494 17.69C31.1666 18.6209 29.7802 20.0072 28.8494 21.69C27.908 23.3543 27.3415 25.204 27.1894 27.11C27.0226 28.8388 27.3705 30.5784 28.1894 32.11C28.9749 33.5934 30.256 34.7541 31.8094 35.39C33.6027 36.1003 35.5212 36.4405 37.4494 36.39C39.2862 36.4267 41.1148 36.1355 42.8494 35.53C44.3066 35.0207 45.6131 34.1543 46.6494 33.01ZM33.0294 27.68C32.8885 28.5182 33.0592 29.3791 33.5094 30.1C33.6944 30.3483 33.9363 30.5487 34.2146 30.6844C34.493 30.8201 34.7998 30.8872 35.1094 30.88C35.6018 30.8776 36.086 30.7539 36.5194 30.52C36.8941 30.3015 37.2316 30.0247 37.5194 29.7C38.1088 29.0187 38.5696 28.236 38.8794 27.39C39.2707 26.4918 39.5138 25.5361 39.5994 24.56C39.7239 23.7738 39.5452 22.9695 39.0994 22.31C38.906 22.0552 38.6544 21.8505 38.3655 21.713C38.0767 21.5755 37.7591 21.5094 37.4394 21.52C36.6463 21.5369 35.8875 21.8468 35.3094 22.39C34.5649 23.0555 34.0066 23.9033 33.6894 24.85C33.3367 25.7574 33.1145 26.7102 33.0294 27.68Z" fill="#C8D8FA"/>
</svg>
