<svg width="128" height="74" viewBox="0 0 128 74" fill="none" xmlns="http://www.w3.org/2000/svg">
<path d="M63.9592 73.3293C99.2829 73.3293 127.918 71.4938 127.918 69.2295C127.918 66.9653 99.2829 65.1297 63.9592 65.1297C28.6355 65.1297 0 66.9653 0 69.2295C0 71.4938 28.6355 73.3293 63.9592 73.3293Z" fill="#F5F9FF"/>
<path d="M101.26 25.38V63.81C101.257 64.9417 100.807 66.0262 100.006 66.8265C99.2062 67.6267 98.1217 68.0774 96.99 68.08H31.27C30.1383 68.0774 29.0538 67.6267 28.2536 66.8265C27.4534 66.0262 27.0026 64.9417 27 63.81V25.38C26.9994 24.835 27.1047 24.295 27.31 23.79C27.6321 22.9944 28.1855 22.3137 28.8986 21.836C29.6117 21.3582 30.4517 21.1053 31.31 21.11H97.03C97.8886 21.104 98.7292 21.3563 99.4426 21.8342C100.156 22.3122 100.709 22.9936 101.03 23.79C101.208 24.3004 101.286 24.8402 101.26 25.38V25.38Z" fill="#2772FF"/>
<path opacity="0.3" d="M100.95 23.7901L65.8801 52.9001C65.3874 53.3065 64.7687 53.5287 64.1301 53.5287C63.4914 53.5287 62.8727 53.3065 62.3801 52.9001L27.3101 23.7901C27.6322 22.9944 28.1855 22.3138 28.8986 21.836C29.6117 21.3582 30.4517 21.1053 31.3101 21.11H97.0301C97.875 21.1199 98.6982 21.3796 99.3958 21.8566C100.093 22.3335 100.634 23.0063 100.95 23.7901V23.7901Z" fill="black"/>
<path d="M75.5596 0.610046H40.6196V34.83L62.3796 52.9C62.8723 53.3065 63.491 53.5287 64.1296 53.5287C64.7683 53.5287 65.387 53.3065 65.8796 52.9L87.6496 34.83V8.26005L75.5596 0.610046Z" fill="white"/>
<path fill-rule="evenodd" clip-rule="evenodd" d="M70.2527 19.7042V21.3014C72.0469 21.8614 73.3541 23.4856 73.3541 25.4254V30.568C73.3541 32.9696 71.3631 34.9167 68.9085 34.9167H60.0924C57.6367 34.9167 55.6458 32.9696 55.6458 30.568V25.4254C55.6458 23.4856 56.954 21.8614 58.7471 21.3014V19.7042C58.7577 16.5987 61.3298 14.0833 64.484 14.0833C67.6806 14.0833 70.2527 16.5987 70.2527 19.7042ZM64.5052 15.8948C66.6539 15.8948 68.4004 17.6028 68.4004 19.7042V21.0768H60.5994V19.6835C60.61 17.5925 62.3565 15.8948 64.5052 15.8948ZM65.4261 29.1406C65.4261 29.6478 65.0133 30.0515 64.4946 30.0515C63.9866 30.0515 63.5738 29.6478 63.5738 29.1406V26.8425C63.5738 26.3457 63.9866 25.942 64.4946 25.942C65.0133 25.942 65.4261 26.3457 65.4261 26.8425V29.1406Z" fill="#C8D8FA"/>
<path d="M62.3117 52.9775L62.3095 52.9756L40.5523 34.878C40.5521 34.8778 40.5518 34.8775 40.5515 34.8773C40.5386 34.8662 40.5283 34.8526 40.5211 34.8372C40.5139 34.8218 40.51 34.805 40.5098 34.788V0.610039C40.5098 0.580866 40.5214 0.552886 40.542 0.532257C40.5626 0.511628 40.5906 0.500038 40.6198 0.500038L75.5598 0.500071L75.5655 0.500006C75.5827 0.499809 75.5997 0.504575 75.6143 0.513739L87.7532 8.14306C87.7532 8.14307 87.7533 8.14309 87.7533 8.14311C87.7678 8.15229 87.7798 8.16508 87.7879 8.18026C87.7961 8.19546 87.8002 8.2125 87.7999 8.22973L87.7998 8.22973V8.24004V34.8279C87.7996 34.8449 87.7957 34.8617 87.7885 34.8772C87.7813 34.8924 87.7711 34.906 87.7584 34.917C87.758 34.9173 87.7576 34.9177 87.7572 34.918L65.9509 52.9749L65.9478 52.9775C65.439 53.4058 64.7952 53.6405 64.1301 53.64H64.1295C63.4644 53.6405 62.8206 53.4058 62.3117 52.9775ZM40.7198 34.54V34.7748L40.9004 34.9247L62.4504 52.8147L62.4505 52.8148C62.9225 53.2064 63.5165 53.4207 64.1298 53.4207C64.7431 53.4207 65.337 53.2064 65.809 52.8148L65.8091 52.8147L87.3591 34.9247L87.5398 34.7748V34.54V8.54004V8.26214L87.3038 8.11541L75.5938 0.835411L75.4725 0.760041H75.3298H41.2198H40.7198V1.26004V34.54Z" stroke="#EBF0F9"/>
</svg>
