<svg width="22" height="20" viewBox="0 0 22 20" fill="none" xmlns="http://www.w3.org/2000/svg">
<path d="M20.2294 1.85442C19.2013 0.824167 17.8038 0.25 16.351 0.25H5.64878C2.61436 0.25 0.167114 2.69833 0.167114 5.72083V14.2792C0.167114 17.3017 2.6252 19.75 5.64878 19.75H16.351C19.3746 19.75 21.8338 17.3017 21.8338 14.2792V5.72083C21.8338 4.26917 21.2585 2.8825 20.2294 1.85442Z" fill="url(#paint0_linear_1816_19477)"/>
<path d="M18.1613 7.24828L18.0747 7.33495L13.1877 11.2458C12.5822 11.7224 11.8336 11.9824 11.0655 11.9824C10.2952 11.9824 9.55966 11.7224 8.95299 11.2458L4.02383 7.39995L3.88191 7.25912C3.63383 6.93412 3.66633 6.46828 3.95883 6.17578C4.23941 5.88328 4.70524 5.85078 5.04216 6.09995L9.91716 9.99995C10.5552 10.521 11.4555 10.521 12.0838 9.99995L16.9686 6.09995C17.1322 5.94828 17.3488 5.87137 17.5763 5.88328C17.7919 5.90495 17.9988 6.00353 18.1494 6.16495C18.4202 6.47912 18.4202 6.93412 18.1613 7.24828Z" fill="white"/>
<defs>
<linearGradient id="paint0_linear_1816_19477" x1="31.0547" y1="37.625" x2="-5.38509" y2="33.9999" gradientUnits="userSpaceOnUse">
<stop stop-color="#04ECFD"/>
<stop offset="1" stop-color="#2772FF"/>
</linearGradient>
</defs>
</svg>
