<svg width="270" height="95" viewBox="0 0 270 95" fill="none" xmlns="http://www.w3.org/2000/svg">
<circle cx="267" cy="72" r="3" fill="#E7EEFC"/>
<circle cx="217" cy="32" r="3" fill="#E7EEFC"/>
<circle cx="52" cy="21" r="3" fill="#E7EEFC"/>
<path d="M249.501 10V24.4996H235.001C235.001 16.4926 241.494 10 249.501 10Z" fill="#E7EEFC"/>
<path d="M249.5 38.9996V24.5H264C264 32.507 257.507 38.9996 249.5 38.9996Z" fill="#E7EEFC"/>
<path d="M235 24.5004V39H249.5V24.5004H235Z" fill="#E7EEFC"/>
<path d="M249.5 24.501H264V10.0014L249.5 10.0014V24.501Z" fill="#E7EEFC"/>
<path d="M41.5006 59V73.4996H27.001C27.001 65.4926 33.4936 59 41.5006 59Z" fill="#E7EEFC"/>
<path d="M41.5 87.9996V73.5H55.9996C55.9996 81.507 49.507 87.9996 41.5 87.9996Z" fill="#E7EEFC"/>
<path d="M27 73.5004V88H41.4996V73.5004H27Z" fill="#E7EEFC"/>
<path d="M41.5004 73.501H56V59.0014H41.5004V73.501Z" fill="#E7EEFC"/>
<path d="M22.8906 8.30583L14.5867 14.587L8.30549 6.28315C12.8911 2.81453 19.422 3.72025 22.8906 8.30583Z" fill="#E7EEFC"/>
<path d="M6.28206 20.8671L14.5859 14.5859L20.8671 22.8898C16.2815 26.3584 9.75067 25.4527 6.28206 20.8671Z" fill="#E7EEFC"/>
<path d="M8.30388 6.28131L0 12.5625L6.28119 20.8664L14.5851 14.5852L8.30388 6.28131Z" fill="#E7EEFC"/>
<path d="M14.585 14.5867L20.8662 22.8906L29.1701 16.6094L22.8889 8.30555L14.585 14.5867Z" fill="#E7EEFC"/>
<path d="M233.433 71.5289L228.906 80.9047L219.53 76.3768C222.03 71.1993 228.256 69.0285 233.433 71.5289Z" fill="#E7EEFC"/>
<path d="M224.376 90.2801L228.904 80.9043L238.28 85.4322C235.78 90.6097 229.554 92.7805 224.376 90.2801Z" fill="#E7EEFC"/>
<path d="M219.528 76.3761L215 85.752L224.376 90.2798L228.904 80.904L219.528 76.3761Z" fill="#E7EEFC"/>
<path d="M228.903 80.9047L238.279 85.4326L242.807 76.0568L233.431 71.5289L228.903 80.9047Z" fill="#E7EEFC"/>
</svg>
