<svg width="24" height="24" viewBox="0 0 24 24" fill="none" xmlns="http://www.w3.org/2000/svg">
<path fill-rule="evenodd" clip-rule="evenodd" d="M23.5199 12.2728C23.5199 11.4219 23.4436 10.6037 23.3018 9.81824H11.9999V14.4601H18.4581C18.1799 15.9601 17.3345 17.231 16.0636 18.0819V21.0928H19.9418C22.2108 19.0037 23.5199 15.9273 23.5199 12.2728Z" fill="#4285F4"/>
<path fill-rule="evenodd" clip-rule="evenodd" d="M11.9999 24C15.2399 24 17.9563 22.9255 19.9418 21.0928L16.0636 18.0818C14.989 18.8018 13.6145 19.2273 11.9999 19.2273C8.87448 19.2273 6.22903 17.1164 5.28539 14.28H1.27631V17.3891C3.25085 21.3109 7.30903 24 11.9999 24Z" fill="#34A853"/>
<path fill-rule="evenodd" clip-rule="evenodd" d="M5.28539 14.2801C5.04539 13.5601 4.90903 12.791 4.90903 12.0001C4.90903 11.2091 5.04539 10.4401 5.28539 9.72005V6.61096H1.2763C0.463575 8.23096 -6.10352e-05 10.0637 -6.10352e-05 12.0001C-6.10352e-05 13.9364 0.463575 15.7691 1.2763 17.3891L5.28539 14.2801Z" fill="#FBBC05"/>
<path fill-rule="evenodd" clip-rule="evenodd" d="M11.9999 4.77273C13.7618 4.77273 15.3436 5.37818 16.5872 6.56727L20.029 3.12545C17.9508 1.18909 15.2345 0 11.9999 0C7.30903 0 3.25085 2.68909 1.27631 6.61091L5.2854 9.72C6.22903 6.88363 8.87449 4.77273 11.9999 4.77273Z" fill="#EA4335"/>
</svg>
