<svg width="128" height="64" viewBox="0 0 128 64" fill="none" xmlns="http://www.w3.org/2000/svg">
<path d="M63.9592 63.3293C99.2829 63.3293 127.918 61.4938 127.918 59.2295C127.918 56.9652 99.2829 55.1297 63.9592 55.1297C28.6355 55.1297 0 56.9652 0 59.2295C0 61.4938 28.6355 63.3293 63.9592 63.3293Z" fill="#F5F9FF"/>
<path d="M54.0958 20.2347L53.7381 19.2301C53.492 18.5395 53.0189 17.9529 52.3961 17.5663C51.7733 17.1796 51.0377 17.0157 50.3096 17.1014L36.0623 18.768C35.2088 18.8681 34.4301 19.3031 33.8973 19.9773C33.3645 20.6516 33.1213 21.5098 33.2212 22.3633L37.2757 57.0351C37.3094 57.3251 37.3999 57.6056 37.542 57.8606C37.6842 58.1156 37.8752 58.34 38.1042 58.5211C38.3332 58.7022 38.5957 58.8363 38.8765 58.9159C39.1574 58.9955 39.4512 59.0189 39.7412 58.9848L90.7203 53.0223C91.0108 52.9894 91.292 52.8994 91.5476 52.7576C91.8033 52.6157 92.0284 52.4248 92.2101 52.1957C92.3918 51.9667 92.5265 51.704 92.6064 51.4227C92.6864 51.1415 92.71 50.8473 92.676 50.5569L89.1581 20.5835C89.0901 19.9984 88.7925 19.4643 88.3306 19.0987C87.8688 18.733 87.2807 18.5658 86.6956 18.6338L57.092 22.098C56.4555 22.1717 55.8128 22.0276 55.2687 21.6892C54.7246 21.3508 54.3112 20.8382 54.0958 20.2347Z" fill="#2772FF"/>
<path d="M55.519 5.15723L39.4121 8.36694L43.8343 30.5582L59.9412 27.3485L55.519 5.15723Z" fill="#2772FF"/>
<path opacity="0.8" d="M55.519 5.15723L39.4121 8.36694L43.8343 30.5582L59.9412 27.3485L55.519 5.15723Z" fill="white"/>
<g opacity="0.4">
<path opacity="0.4" d="M53.3691 10.489L43.4476 12.4686C43.2164 12.5134 42.9769 12.4653 42.781 12.3347C42.5851 12.2041 42.4486 12.0016 42.4012 11.771C42.3563 11.5398 42.4044 11.3003 42.535 11.1044C42.6656 10.9085 42.8682 10.772 43.0988 10.7245L53.0263 8.75394C53.2574 8.70908 53.4969 8.75716 53.6928 8.88776C53.8887 9.01836 54.0252 9.22095 54.0727 9.45155C54.1148 9.68219 54.0647 9.92014 53.9331 10.1142C53.8015 10.3082 53.599 10.4428 53.3691 10.489Z" fill="#2772FF"/>
<path opacity="0.4" d="M54.1 14.1648L44.1784 16.1533C43.9477 16.1973 43.709 16.1488 43.5138 16.0183C43.3185 15.8877 43.1825 15.6857 43.135 15.4557C43.091 15.225 43.1395 14.9863 43.27 14.7911C43.4005 14.5958 43.6026 14.4598 43.8326 14.4123L53.7541 12.4357C53.9848 12.3917 54.2236 12.4402 54.4188 12.5707C54.614 12.7013 54.7501 12.9033 54.7976 13.1333C54.8381 13.3622 54.788 13.5979 54.6578 13.7904C54.5276 13.983 54.3275 14.1172 54.1 14.1648Z" fill="#2772FF"/>
<path opacity="0.4" d="M54.8304 17.8348L44.9089 19.8113C44.6782 19.8553 44.4395 19.8068 44.2442 19.6763C44.049 19.5458 43.913 19.3437 43.8654 19.1137C43.8215 18.883 43.87 18.6443 44.0005 18.4491C44.131 18.2538 44.3331 18.1178 44.5631 18.0703L54.4846 16.0907C54.7153 16.0467 54.954 16.0952 55.1492 16.2258C55.3445 16.3563 55.4805 16.5584 55.528 16.7883C55.5729 17.0195 55.5248 17.259 55.3942 17.4549C55.2636 17.6508 55.061 17.7873 54.8304 17.8348Z" fill="#2772FF"/>
<path opacity="0.4" d="M55.5625 21.5196L45.6409 23.4961C45.4098 23.541 45.1703 23.4929 44.9744 23.3623C44.7785 23.2317 44.642 23.0291 44.5945 22.7985C44.5497 22.5674 44.5977 22.3279 44.7283 22.132C44.8589 21.9361 45.0615 21.7996 45.2921 21.7521L55.2137 19.7755C55.4448 19.7307 55.6843 19.7788 55.8802 19.9094C56.0761 20.04 56.2126 20.2426 56.2601 20.4732C56.305 20.7043 56.2569 20.9438 56.1263 21.1397C55.9957 21.3356 55.7931 21.4721 55.5625 21.5196Z" fill="#2772FF"/>
<path opacity="0.4" d="M53.5809 25.7142L46.3723 27.1512C46.1416 27.1952 45.9029 27.1467 45.7077 27.0161C45.5125 26.8856 45.3764 26.6835 45.3289 26.4535C45.284 26.2224 45.3321 25.9829 45.4627 25.787C45.5933 25.5911 45.7959 25.4546 46.0265 25.4071L53.2351 23.9702C53.4658 23.9262 53.7045 23.9747 53.8998 24.1052C54.095 24.2357 54.231 24.4378 54.2786 24.6678C54.3234 24.8989 54.2753 25.1384 54.1447 25.3343C54.0141 25.5302 53.8116 25.6667 53.5809 25.7142Z" fill="#2772FF"/>
</g>
<path d="M78.4693 0.880589L62.1973 3.10669L65.2643 25.5254L81.5363 23.2993L78.4693 0.880589Z" fill="#2772FF"/>
<path opacity="0.8" d="M78.4693 0.880589L62.1973 3.10669L65.2643 25.5254L81.5363 23.2993L78.4693 0.880589Z" fill="white"/>
<g opacity="0.4">
<path opacity="0.4" d="M75.999 6.07688L65.9761 7.44825C65.7427 7.47887 65.5066 7.41622 65.3191 7.27391C65.1316 7.13159 65.0077 6.92108 64.9744 6.68804C64.9438 6.45462 65.0064 6.21855 65.1487 6.03103C65.2911 5.84351 65.5016 5.71966 65.7346 5.68634L75.7575 4.31497C75.9909 4.28435 76.227 4.347 76.4145 4.48932C76.6021 4.63163 76.7259 4.84215 76.7592 5.07519C76.7898 5.3086 76.7272 5.54467 76.5849 5.7322C76.4426 5.91972 76.232 6.04357 75.999 6.07688Z" fill="#2772FF"/>
<path opacity="0.4" d="M76.5045 9.78252L66.4816 11.1539C66.2482 11.1845 66.0121 11.1219 65.8246 10.9795C65.637 10.8372 65.5132 10.6267 65.4799 10.3937C65.4501 10.1607 65.5131 9.92542 65.6554 9.73856C65.7976 9.55171 66.0076 9.42829 66.2401 9.39496L76.263 8.02359C76.496 7.99291 76.7316 8.05516 76.9191 8.19685C77.1065 8.33855 77.2307 8.54832 77.2647 8.78082C77.2953 9.01423 77.2327 9.25031 77.0904 9.43783C76.948 9.62535 76.7375 9.7492 76.5045 9.78252Z" fill="#2772FF"/>
<path opacity="0.4" d="M69.7504 14.484L66.9898 14.8626C66.7564 14.8932 66.5203 14.8306 66.3328 14.6882C66.1452 14.5459 66.0214 14.3354 65.9881 14.1024C65.9575 13.869 66.0201 13.6329 66.1624 13.4454C66.3047 13.2578 66.5152 13.134 66.7483 13.1007L69.5119 12.7221C69.7448 12.6923 69.9801 12.7553 70.167 12.8976C70.3539 13.0398 70.4773 13.2498 70.5106 13.4823C70.5412 13.7157 70.4786 13.9518 70.3363 14.1393C70.1939 14.3268 69.9834 14.4507 69.7504 14.484Z" fill="#2772FF"/>
<path opacity="0.4" d="M75.1078 13.7506L72.3442 14.1292C72.1113 14.159 71.876 14.0959 71.6891 13.9537C71.5022 13.8115 71.3788 13.6015 71.3455 13.369C71.3149 13.1356 71.3775 12.8995 71.5198 12.712C71.6622 12.5245 71.8727 12.4006 72.1057 12.3673L74.8663 11.9917C75.0993 11.961 75.335 12.0232 75.5224 12.1649C75.7099 12.3066 75.834 12.5164 75.868 12.7489C75.8986 12.9823 75.836 13.2184 75.6937 13.4059C75.5514 13.5934 75.3409 13.7173 75.1078 13.7506Z" fill="#2772FF"/>
<path opacity="0.4" d="M77.5201 17.1969L67.4972 18.5682C67.2638 18.5989 67.0277 18.5362 66.8402 18.3939C66.6527 18.2516 66.5288 18.0411 66.4955 17.808C66.4657 17.5751 66.5288 17.3398 66.671 17.1529C66.8132 16.9661 67.0233 16.8426 67.2557 16.8093L77.2786 15.435C77.512 15.4043 77.7481 15.467 77.9356 15.6093C78.1232 15.7516 78.247 15.9621 78.2803 16.1952C78.3109 16.4286 78.2483 16.6647 78.106 16.8522C77.9637 17.0397 77.7532 17.1636 77.5201 17.1969Z" fill="#2772FF"/>
<path opacity="0.4" d="M75.2886 21.2782L68.0025 22.2739C67.77 22.3037 67.5351 22.2411 67.3483 22.0995C67.1615 21.9579 67.0378 21.7486 67.0037 21.5167C66.9731 21.2837 67.0353 21.048 67.177 20.8606C67.3187 20.6731 67.5285 20.549 67.761 20.515L75.0471 19.5192C75.2796 19.4894 75.5145 19.552 75.7013 19.6937C75.8881 19.8353 76.0118 20.0446 76.0458 20.2765C76.0765 20.5094 76.0143 20.7451 75.8726 20.9326C75.7309 21.12 75.5211 21.2442 75.2886 21.2782Z" fill="#2772FF"/>
</g>
<path d="M63.1136 4.15157L46.752 5.57727L48.7162 28.1194L65.0778 26.6937L63.1136 4.15157Z" fill="#2772FF"/>
<path opacity="0.9" d="M63.1136 4.15157L46.752 5.57727L48.7162 28.1194L65.0778 26.6937L63.1136 4.15157Z" fill="white"/>
<g opacity="0.4">
<path opacity="0.4" d="M60.3929 9.22504L50.3133 10.1015C50.0788 10.1206 49.8462 10.0465 49.666 9.89525C49.4857 9.74403 49.3723 9.52787 49.3504 9.29361C49.3321 9.05959 49.4066 8.82778 49.5578 8.6482C49.7089 8.46861 49.9246 8.35563 50.1583 8.33365L60.2378 7.43928C60.4723 7.42022 60.7049 7.49433 60.8852 7.64555C61.0654 7.79678 61.1788 8.01294 61.2008 8.2472C61.2123 8.36451 61.2005 8.48295 61.166 8.59569C61.1316 8.70842 61.0752 8.81324 61.0001 8.90412C60.9251 8.99499 60.8328 9.07013 60.7285 9.1252C60.6243 9.18028 60.5102 9.21421 60.3929 9.22504Z" fill="#2772FF"/>
<path opacity="0.4" d="M60.7173 12.9515L50.6378 13.8459C50.4032 13.865 50.1707 13.7909 49.9904 13.6396C49.8102 13.4884 49.6968 13.2722 49.6748 13.038C49.6558 12.8035 49.7299 12.5709 49.8811 12.3907C50.0323 12.2104 50.2485 12.097 50.4827 12.075L60.5623 11.1807C60.7968 11.1616 61.0294 11.2357 61.2096 11.3869C61.3899 11.5382 61.5033 11.7543 61.5252 11.9886C61.5443 12.2231 61.4702 12.4557 61.319 12.6359C61.1677 12.8162 60.9516 12.9296 60.7173 12.9515Z" fill="#2772FF"/>
<path opacity="0.4" d="M61.0415 16.678L50.962 17.5724C50.7275 17.5915 50.4949 17.5174 50.3146 17.3661C50.1344 17.2149 50.021 16.9987 49.999 16.7645C49.98 16.53 50.0541 16.2974 50.2053 16.1172C50.3565 15.9369 50.5727 15.8235 50.807 15.8015L60.8865 14.9072C61.121 14.8881 61.3536 14.9622 61.5338 15.1134C61.7141 15.2647 61.8275 15.4808 61.8494 15.7151C61.8685 15.9496 61.7944 16.1822 61.6432 16.3624C61.4919 16.5427 61.2758 16.6561 61.0415 16.678Z" fill="#2772FF"/>
<path opacity="0.4" d="M61.3736 20.4045L51.294 21.2989C51.0595 21.318 50.8269 21.2439 50.6467 21.0926C50.4664 20.9414 50.353 20.7252 50.3311 20.491C50.312 20.2565 50.3861 20.0239 50.5373 19.8437C50.6886 19.6634 50.9047 19.55 51.139 19.528L61.2185 18.6516C61.453 18.6325 61.6856 18.7066 61.8659 18.8578C62.0461 19.0091 62.1595 19.2252 62.1815 19.4595C62.1957 19.691 62.1193 19.919 61.9686 20.0953C61.8179 20.2717 61.6045 20.3825 61.3736 20.4045Z" fill="#2772FF"/>
<path opacity="0.4" d="M58.9384 24.3726L51.6135 25.0106C51.3775 25.0321 51.1426 24.9592 50.9604 24.8077C50.7782 24.6562 50.6635 24.4386 50.6416 24.2027C50.6225 23.9682 50.6967 23.7356 50.8479 23.5553C50.9991 23.3751 51.2153 23.2617 51.4495 23.2397L58.7744 22.6018C59.0089 22.5827 59.2415 22.6568 59.4218 22.808C59.602 22.9593 59.7154 23.1754 59.7374 23.4097C59.7565 23.6428 59.6837 23.8741 59.5343 24.0541C59.385 24.2341 59.171 24.3485 58.9384 24.3726Z" fill="#2772FF"/>
</g>
<path d="M83.0511 3.05633L66.6465 3.84717L67.7361 26.4485L84.1406 25.6576L83.0511 3.05633Z" fill="#2772FF"/>
<path opacity="0.9" d="M83.0511 3.05633L66.6465 3.84717L67.7361 26.4485L84.1406 25.6576L83.0511 3.05633Z" fill="white"/>
<g opacity="0.4">
<path opacity="0.4" d="M80.1359 8.01466L70.0325 8.50358C69.7977 8.51335 69.5685 8.43032 69.3944 8.27244C69.2204 8.11456 69.1154 7.89452 69.1023 7.65989C69.0926 7.4251 69.1756 7.1959 69.3335 7.02185C69.4914 6.84779 69.7114 6.74286 69.946 6.72975L80.0524 6.24082C80.2872 6.23106 80.5164 6.31409 80.6905 6.47197C80.8645 6.62985 80.9694 6.84989 80.9826 7.08451C80.9923 7.31979 80.9089 7.54942 80.7503 7.72356C80.5918 7.8977 80.371 8.0023 80.1359 8.01466Z" fill="#2772FF"/>
<path opacity="0.4" d="M80.3185 11.7531L70.2122 12.239C69.9774 12.2488 69.7482 12.1658 69.5741 12.0079C69.4001 11.85 69.2951 11.63 69.282 11.3954C69.2723 11.1601 69.3557 10.9305 69.5142 10.7563C69.6727 10.5822 69.8935 10.4776 70.1287 10.4652L80.2321 9.97629C80.4674 9.96655 80.697 10.05 80.8711 10.2085C81.0453 10.367 81.1499 10.5878 81.1622 10.823C81.172 11.0578 81.089 11.287 80.9311 11.461C80.7732 11.6351 80.5532 11.74 80.3185 11.7531Z" fill="#2772FF"/>
<path opacity="0.4" d="M73.1783 15.8553L70.3938 15.9894C70.159 15.9992 69.9298 15.9162 69.7558 15.7583C69.5817 15.6004 69.4768 15.3804 69.4637 15.1457C69.4539 14.911 69.5369 14.6818 69.6948 14.5077C69.8527 14.3336 70.0727 14.2287 70.3074 14.2156L73.0918 14.0785C73.3271 14.0687 73.5567 14.1522 73.7309 14.3107C73.905 14.4692 74.0096 14.69 74.022 14.9251C74.0317 15.1599 73.9487 15.3891 73.7908 15.5632C73.6329 15.7372 73.4129 15.8422 73.1783 15.8553Z" fill="#2772FF"/>
<path opacity="0.4" d="M78.5787 15.581L75.7942 15.7152C75.5594 15.7249 75.3302 15.6419 75.1562 15.484C74.9821 15.3261 74.8772 15.1061 74.8641 14.8715C74.8543 14.6367 74.9373 14.4075 75.0952 14.2334C75.2531 14.0594 75.4731 13.9544 75.7077 13.9413L78.4922 13.8072C78.727 13.7974 78.9562 13.8804 79.1303 14.0383C79.3043 14.1962 79.4092 14.4162 79.4224 14.6509C79.4321 14.8856 79.3491 15.1148 79.1912 15.2889C79.0333 15.463 78.8133 15.5679 78.5787 15.581Z" fill="#2772FF"/>
<path opacity="0.4" d="M80.6799 19.227L70.5735 19.713C70.3387 19.7228 70.1095 19.6397 69.9354 19.4818C69.7614 19.324 69.6565 19.1039 69.6433 18.8693C69.6336 18.634 69.717 18.4044 69.8755 18.2302C70.0341 18.0561 70.2549 17.9515 70.49 17.9392L80.5934 17.4502C80.8287 17.4405 81.0583 17.5239 81.2325 17.6824C81.4066 17.8409 81.5112 18.0617 81.5236 18.2969C81.5333 18.5317 81.4503 18.7609 81.2924 18.9349C81.1345 19.109 80.9145 19.2139 80.6799 19.227Z" fill="#2772FF"/>
<path opacity="0.4" d="M78.0979 23.0967L70.7551 23.4515C70.5203 23.4612 70.2911 23.3782 70.1171 23.2203C69.943 23.0624 69.8381 22.8424 69.825 22.6078C69.8152 22.373 69.8983 22.1438 70.0561 21.9697C70.214 21.7957 70.4341 21.6907 70.6687 21.6776L78.0115 21.3229C78.2462 21.3131 78.4755 21.3961 78.6495 21.554C78.8236 21.7119 78.9285 21.9319 78.9416 22.1665C78.9514 22.4013 78.8683 22.6305 78.7105 22.8046C78.5526 22.9787 78.3325 23.0836 78.0979 23.0967Z" fill="#2772FF"/>
</g>
<path d="M58.6456 20.8757L58.3832 19.8949C58.1994 19.2161 57.7727 18.6285 57.184 18.2437C56.5953 17.859 55.8858 17.7039 55.1903 17.808L40.943 19.4746C40.0786 19.5805 39.2826 19.9981 38.7041 20.649C38.1257 21.2999 37.8045 22.1395 37.8008 23.0103L38.6087 56.9517C38.6135 57.2312 38.6781 57.5065 38.7982 57.759C38.9183 58.0115 39.091 58.2354 39.3048 58.4156C39.5186 58.5958 39.7685 58.7281 40.0377 58.8037C40.3069 58.8792 40.5892 58.8963 40.8655 58.8537L91.8446 52.8912C92.4365 52.8194 92.9819 52.5343 93.3787 52.0892C93.7755 51.6441 93.9964 51.0697 94 50.4734L93.3024 21.1321C93.2972 20.8524 93.2322 20.5771 93.1118 20.3246C92.9914 20.0721 92.8183 19.8482 92.6043 19.6681C92.3903 19.488 92.1402 19.3557 91.8709 19.2801C91.6015 19.2046 91.3191 19.1875 91.0426 19.2301L61.442 22.6913C60.8343 22.7841 60.2138 22.6504 59.6983 22.3157C59.1827 21.981 58.8081 21.4685 58.6456 20.8757Z" fill="#2772FF"/>
<path opacity="0.18" d="M58.6456 20.8757L58.3832 19.8949C58.1994 19.2161 57.7727 18.6285 57.184 18.2437C56.5953 17.859 55.8858 17.7039 55.1903 17.808L40.943 19.4746C40.0786 19.5805 39.2826 19.9981 38.7041 20.649C38.1257 21.2999 37.8045 22.1395 37.8008 23.0103L38.6087 56.9517C38.6135 57.2312 38.6781 57.5065 38.7982 57.759C38.9183 58.0115 39.091 58.2354 39.3048 58.4156C39.5186 58.5958 39.7685 58.7281 40.0377 58.8037C40.3069 58.8792 40.5892 58.8963 40.8655 58.8537L91.8446 52.8912C92.4365 52.8194 92.9819 52.5343 93.3787 52.0892C93.7755 51.6441 93.9964 51.0697 94 50.4734L93.3024 21.1321C93.2972 20.8524 93.2322 20.5771 93.1118 20.3246C92.9914 20.0721 92.8183 19.8482 92.6043 19.6681C92.3903 19.488 92.1402 19.3557 91.8709 19.2801C91.6015 19.2046 91.3191 19.1875 91.0426 19.2301L61.442 22.6913C60.8343 22.7841 60.2138 22.6504 59.6983 22.3157C59.1827 21.981 58.8081 21.4685 58.6456 20.8757Z" fill="#1B1F27"/>
</svg>
