<svg width="154" height="92" viewBox="0 0 154 92" fill="none" xmlns="http://www.w3.org/2000/svg">
<path d="M76.7111 91.8587C119.078 91.8587 153.422 89.851 153.422 87.3744C153.422 84.8978 119.078 82.8901 76.7111 82.8901C34.3447 82.8901 0 84.8978 0 87.3744C0 89.851 34.3447 91.8587 76.7111 91.8587Z" fill="#F5F9FF"/>
<path d="M104.461 44.0388C106.968 28.5962 96.4813 14.0454 81.0387 11.5387C65.5962 9.03207 51.0454 19.5187 48.5387 34.9613C46.0321 50.4038 56.5187 64.9546 71.9612 67.4612C87.4038 69.9679 101.955 59.4813 104.461 44.0388Z" fill="#2772FF"/>
<path d="M98.5 39.5215C98.4957 43.8718 97.2018 48.1231 94.7819 51.7382C92.3619 55.3532 88.9245 58.1697 84.9041 59.8315C80.8838 61.4933 76.461 61.9259 72.1948 61.0746C67.9287 60.2233 64.0107 58.1263 60.9361 55.0487C57.8615 51.9711 55.7683 48.0511 54.9212 43.7841C54.074 39.5171 54.511 35.0947 56.1767 31.076C57.8425 27.0573 60.6623 23.6226 64.2797 21.2062C67.8971 18.7897 72.1497 17.5 76.5 17.5C79.3909 17.5 82.2534 18.0698 84.924 19.1767C87.5946 20.2837 90.0208 21.9061 92.0639 23.9513C94.1071 25.9964 95.7272 28.4242 96.8315 31.0959C97.9359 33.7675 98.5028 36.6306 98.5 39.5215Z" fill="white"/>
<path d="M81.5211 45.3945C83.2281 44.4158 84.5577 42.916 85.3049 41.1267C86.0521 39.3373 86.1754 37.3576 85.6558 35.4931C85.1362 33.6285 84.0026 31.9826 82.4297 30.8092C80.8568 29.6357 78.9321 29 76.9524 29C74.9728 29 73.048 29.6357 71.4752 30.8092C69.9023 31.9826 68.7687 33.6285 68.2491 35.4931C67.7295 37.3576 67.8528 39.3373 68.6 41.1267C69.3472 42.916 70.6768 44.4158 72.3838 45.3945C69.9169 46.3056 67.7931 47.9288 66.2953 50.0478C64.7975 52.1668 63.9969 54.681 64 57.2554C64.0023 57.9795 64.0653 58.7021 64.1884 59.4162C68.0307 61.7582 72.4696 63 76.9995 63C81.5295 63 85.9684 61.7582 89.8107 59.4162C89.9454 58.7036 90.0085 57.9799 89.9991 57.2554C89.9984 54.6694 89.1852 52.1458 87.6693 50.0249C86.1533 47.904 84.0075 46.2879 81.5211 45.3945Z" fill="#2772FF"/>
<path d="M88.123 63.5794L102.693 71.1387L96.6375 56.142L88.123 63.5794Z" fill="#2772FF"/>
<path d="M26.564 14.116C26.2674 14.2211 25.9371 14.1938 25.6444 14.0401L22.8138 12.5485C22.5172 12.3912 22.2838 12.1171 22.165 11.7865C22.0461 11.4559 22.0515 11.0959 22.18 10.7858C22.3085 10.4756 22.5496 10.2406 22.8501 10.1326C23.1507 10.0245 23.4862 10.0522 23.7828 10.2095L26.6066 11.7175C26.9005 11.8745 27.1316 12.1467 27.2495 12.4747C27.3674 12.8026 27.3625 13.1597 27.2359 13.4678C27.1718 13.6208 27.0795 13.7568 26.9642 13.868C26.8488 13.9792 26.7129 14.0635 26.564 14.116Z" fill="#2772FF"/>
<path d="M25.6815 21.8722L23.0537 22.817C22.7782 22.916 22.4605 22.8623 22.1706 22.6676C21.8806 22.473 21.6421 22.1533 21.5075 21.7789C21.3729 21.4045 21.3533 21.0062 21.4529 20.6714C21.5525 20.3367 21.7632 20.093 22.0387 19.9939L24.6665 19.0491C24.9419 18.9501 25.2596 19.0038 25.5496 19.1985C25.8395 19.3932 26.078 19.7129 26.2126 20.0872C26.3472 20.4616 26.3669 20.86 26.2673 21.1947C26.1677 21.5294 25.9569 21.7732 25.6815 21.8722Z" fill="#2772FF"/>
<path d="M31.4519 9.17082C31.1246 9.28922 30.7733 9.30334 30.469 9.21032C30.1647 9.1173 29.9302 8.92409 29.8129 8.66976L28.6359 6.1267C28.5746 5.99471 28.5467 5.85002 28.5538 5.70092C28.561 5.55182 28.603 5.40127 28.6775 5.2579C28.7521 5.11453 28.8576 4.98118 28.9881 4.8655C29.1186 4.74983 29.2715 4.65411 29.438 4.58384C29.7725 4.44426 30.1408 4.41567 30.4625 4.50433C30.7841 4.59299 31.0329 4.79169 31.1545 5.05702L32.3444 7.59544C32.4057 7.72743 32.4337 7.87213 32.4265 8.02122C32.4194 8.17032 32.3773 8.32089 32.3028 8.46425C32.2283 8.60762 32.1227 8.74097 31.9922 8.85664C31.8617 8.97232 31.7088 9.06804 31.5423 9.13831L31.4519 9.17082Z" fill="#2772FF"/>
</svg>
