<svg width="154" height="92" viewBox="0 0 154 92" fill="none" xmlns="http://www.w3.org/2000/svg">
<path d="M76.7111 91.8587C119.078 91.8587 153.422 89.851 153.422 87.3744C153.422 84.8978 119.078 82.8901 76.7111 82.8901C34.3447 82.8901 0 84.8978 0 87.3744C0 89.851 34.3447 91.8587 76.7111 91.8587Z" fill="#F5F9FF"/>
<path d="M24.3836 5.08705C24.1993 5.08627 24.0227 5.01302 23.8918 4.88306L22.6273 3.62394C22.495 3.49148 22.4207 3.31184 22.4207 3.12452C22.4207 2.9372 22.495 2.75754 22.6273 2.62509C22.7596 2.49263 22.939 2.41821 23.1261 2.41821C23.3132 2.41821 23.4926 2.49263 23.6249 2.62509L24.8824 3.89124C25.0133 4.02304 25.0867 4.20132 25.0867 4.38715C25.0867 4.57299 25.0133 4.75127 24.8824 4.88306C24.8168 4.94826 24.7389 4.99983 24.6533 5.03483C24.5677 5.06984 24.4761 5.08759 24.3836 5.08705Z" fill="#407BFF"/>
<path d="M22.48 9.5045H20.7025C20.5162 9.5045 20.3375 9.43039 20.2058 9.29847C20.074 9.16656 20 8.98764 20 8.80108C20 8.61452 20.074 8.4356 20.2058 8.30368C20.3375 8.17177 20.5162 8.09766 20.7025 8.09766H22.48C22.6663 8.09766 22.845 8.17177 22.9767 8.30368C23.1085 8.4356 23.1825 8.61452 23.1825 8.80108C23.1825 8.98764 23.1085 9.16656 22.9767 9.29847C22.845 9.43039 22.6663 9.5045 22.48 9.5045Z" fill="#407BFF"/>
<path d="M28.8592 3.18786C28.6811 3.1883 28.5094 3.12098 28.379 2.99953C28.2486 2.87809 28.1691 2.71157 28.1566 2.53367L28.0302 0.754023C28.0235 0.6616 28.0351 0.568773 28.0643 0.480859C28.0936 0.392945 28.1399 0.311681 28.2006 0.241742C28.2613 0.171802 28.3353 0.114565 28.4181 0.0733141C28.501 0.032063 28.5912 0.00761267 28.6835 0.00136848C28.8688 -0.0102139 29.0511 0.0520834 29.1906 0.174658C29.3302 0.297233 29.4156 0.470117 29.4282 0.655544L29.5617 2.4352C29.5684 2.52762 29.5568 2.62046 29.5275 2.70837C29.4983 2.79628 29.452 2.87755 29.3912 2.94749C29.3305 3.01743 29.2566 3.07466 29.1738 3.11592C29.0909 3.15717 29.0007 3.18162 28.9083 3.18786H28.8592Z" fill="#407BFF"/>
<path d="M96.4011 59.7497L94.996 53.7777C94.6412 52.2078 94.6412 50.5784 94.996 49.0085L96.9491 40.5041C97.7481 36.8776 97.3155 33.0877 95.7196 29.7352C94.1237 26.3828 91.456 23.6595 88.1392 21.9972C88.2015 21.8407 88.2554 21.681 88.3008 21.5188C88.4161 21.0029 88.4288 20.4693 88.3382 19.9485C88.2476 19.4277 88.0553 18.9298 87.7725 18.4834C87.4897 18.0369 87.1219 17.6506 86.69 17.3465C86.258 17.0424 85.7706 16.8264 85.2553 16.711C84.74 16.5955 84.2071 16.5828 83.6869 16.6735C83.1667 16.7643 82.6695 16.9567 82.2236 17.2399C81.7777 17.523 81.3919 17.8914 81.0882 18.3238C80.7844 18.7563 80.5687 19.2444 80.4534 19.7603C80.4186 19.9247 80.3974 20.0918 80.3902 20.2597C76.6825 20.3468 73.1097 21.6698 70.2377 24.0193C67.3656 26.3687 65.3584 29.6103 64.5339 33.2308L62.63 41.7422C62.2803 43.3093 61.5841 44.7779 60.5926 46.04L56.806 50.8585C56.4356 51.3311 56.1907 51.8899 56.0942 52.4829C55.9976 53.0758 56.0526 53.6836 56.2538 54.2495C56.4551 54.8155 56.7962 55.3212 57.2453 55.7196C57.6944 56.118 58.2369 56.3961 58.8222 56.528L92.1929 64.0124C92.7762 64.1386 93.382 64.1155 93.954 63.945C94.526 63.7746 95.0459 63.4625 95.4655 63.0375C95.885 62.6125 96.1907 62.0884 96.3542 61.5137C96.5178 60.939 96.5339 60.3323 96.4011 59.7497Z" fill="#2772FF"/>
<path d="M71.2012 61.593C70.9473 61.537 70.6836 61.5445 70.4334 61.6149C70.1831 61.6852 69.9541 61.8163 69.7665 61.9964C69.5789 62.1766 69.4386 62.4003 69.358 62.6477C69.2774 62.8951 69.2589 63.1587 69.3043 63.4149C69.4959 64.5452 70.0192 65.5928 70.8075 66.4243C71.5958 67.2558 72.6134 67.8336 73.7308 68.084C74.8481 68.3345 76.0146 68.2463 77.0818 67.8307C78.1489 67.4151 79.0683 66.6909 79.723 65.7503C79.8725 65.5383 79.9677 65.2927 80.0001 65.0352C80.0326 64.7777 80.0012 64.5161 79.9089 64.2736C79.8166 64.0311 79.6661 63.815 79.4708 63.6444C79.2754 63.4738 79.0411 63.3539 78.7886 63.2953L71.2012 61.593Z" fill="#2772FF"/>
<path d="M45.5724 49.7539C45.3984 49.7552 45.2267 49.7128 45.0733 49.6304C44.9199 49.5481 44.7895 49.4285 44.6943 49.2826C41.3761 44.3051 40.1686 38.2118 41.3372 32.3429C42.5058 26.474 45.9549 21.3103 50.9258 17.9875C51.1587 17.8326 51.4435 17.7768 51.7176 17.8322C51.9916 17.8876 52.2324 18.0497 52.3871 18.2829C52.5417 18.5161 52.5975 18.8013 52.5422 19.0756C52.4869 19.35 52.3249 19.5912 52.092 19.746C47.592 22.7638 44.4724 27.4467 43.4186 32.7659C42.3648 38.0852 43.4629 43.6058 46.4717 48.1149C46.6271 48.3472 46.6841 48.6318 46.6301 48.9061C46.576 49.1805 46.4155 49.4221 46.1837 49.578C46.0025 49.6974 45.7893 49.7588 45.5724 49.7539Z" fill="#2772FF"/>
<path d="M50.0335 46.7576C49.8609 46.7565 49.6911 46.7129 49.5392 46.6308C49.3873 46.5486 49.2579 46.4303 49.1624 46.2863C46.6368 42.4946 45.7177 37.8542 46.6068 33.3844C47.496 28.9146 50.1207 24.9809 53.9045 22.4474C54.0199 22.3703 54.1492 22.3167 54.2852 22.2896C54.4213 22.2625 54.5613 22.2625 54.6973 22.2896C54.8333 22.3167 54.9627 22.3704 55.078 22.4476C55.1933 22.5247 55.2923 22.6239 55.3693 22.7393C55.4464 22.8548 55.4999 22.9843 55.527 23.1205C55.554 23.2567 55.554 23.3969 55.5269 23.5331C55.4998 23.6693 55.4462 23.7988 55.3692 23.9143C55.2921 24.0297 55.1931 24.1288 55.0778 24.206C51.7566 26.4251 49.4519 29.8744 48.6706 33.7949C47.8893 37.7154 48.6955 41.7861 50.9117 45.1116C51.0671 45.3439 51.1241 45.6285 51.0701 45.9028C51.0161 46.1771 50.8555 46.4188 50.6237 46.5747C50.4489 46.6918 50.2438 46.7553 50.0335 46.7576Z" fill="#2772FF"/>
<path d="M54.5016 43.7682C54.3293 43.7691 54.1596 43.7271 54.0075 43.6461C53.8554 43.5651 53.7259 43.4475 53.6304 43.3039C52.7697 42.0134 52.1715 40.5657 51.8702 39.0435C51.5689 37.5213 51.5703 35.9545 51.8744 34.4329C52.1785 32.9112 52.7792 31.4645 53.6423 30.1756C54.5054 28.8867 55.6139 27.7808 56.9043 26.9213C57.1363 26.777 57.4152 26.7285 57.6822 26.7861C57.9491 26.8437 58.1834 27.0028 58.3355 27.2299C58.4876 27.457 58.5458 27.7343 58.4976 28.0035C58.4495 28.2727 58.2989 28.5126 58.0775 28.6728C57.0191 29.3802 56.1103 30.2895 55.4029 31.3487C54.6956 32.4079 54.2036 33.5962 53.955 34.8458C53.7064 36.0954 53.7062 37.3818 53.9543 38.6315C54.2024 39.8812 54.6939 41.0697 55.4008 42.1292C55.5544 42.3621 55.6103 42.6461 55.5564 42.9199C55.5025 43.1937 55.3431 43.4352 55.1128 43.5923C54.9316 43.7117 54.7184 43.7731 54.5016 43.7682Z" fill="#2772FF"/>
<path d="M106.328 64.5896C106.092 64.589 105.864 64.5094 105.678 64.3634C105.493 64.2175 105.362 64.0136 105.307 63.7844C105.251 63.5552 105.273 63.3138 105.371 63.099C105.468 62.8841 105.634 62.708 105.843 62.5989C110.656 60.1089 114.285 55.8071 115.932 50.6391C117.579 45.4711 117.109 39.86 114.625 35.039C114.549 34.9152 114.5 34.7772 114.48 34.6335C114.461 34.4899 114.47 34.3437 114.51 34.204C114.549 34.0644 114.616 33.9343 114.708 33.822C114.799 33.7096 114.913 33.6173 115.042 33.5509C115.17 33.4845 115.312 33.4454 115.456 33.436C115.601 33.4267 115.746 33.4472 115.882 33.4964C116.018 33.5456 116.143 33.6224 116.248 33.722C116.353 33.8216 116.437 33.9419 116.494 34.0753C117.85 36.7097 118.675 39.5859 118.922 42.5396C119.168 45.4934 118.831 48.4668 117.929 51.29C117.028 54.1132 115.579 56.7309 113.667 58.9935C111.755 61.2562 109.416 63.1195 106.785 64.477C106.642 64.5468 106.486 64.5851 106.328 64.5896Z" fill="#2772FF"/>
<path d="M103.862 59.8135C103.626 59.8129 103.398 59.7333 103.213 59.5873C103.028 59.4414 102.897 59.2375 102.841 59.0083C102.785 58.7791 102.807 58.5377 102.905 58.3228C103.002 58.1079 103.168 57.9319 103.377 57.8228C105.135 56.9153 106.697 55.6697 107.974 54.1573C109.251 52.6448 110.218 50.8952 110.819 49.0084C111.42 47.1217 111.643 45.1348 111.477 43.1615C111.31 41.1881 110.756 39.267 109.848 37.508C109.719 37.259 109.695 36.969 109.78 36.7018C109.865 36.4347 110.052 36.2123 110.301 36.0836C110.55 35.9549 110.839 35.9303 111.106 36.0154C111.373 36.1005 111.595 36.2882 111.724 36.5373C112.759 38.5425 113.39 40.7324 113.579 42.9817C113.769 45.2311 113.514 47.4958 112.829 49.6464C112.144 51.7971 111.042 53.7914 109.587 55.5154C108.131 57.2394 106.351 58.6593 104.347 59.6939C104.198 59.7737 104.031 59.8148 103.862 59.8135Z" fill="#2772FF"/>
<path d="M101.396 55.0367C101.162 55.0329 100.935 54.9512 100.751 54.8044C100.568 54.6576 100.438 54.4539 100.383 54.2255C100.327 53.997 100.349 53.7566 100.445 53.5419C100.541 53.3271 100.705 53.1503 100.912 53.039C102.043 52.4562 103.048 51.6558 103.87 50.6835C104.691 49.7112 105.314 48.5863 105.701 47.3729C106.087 46.1596 106.232 44.8818 106.125 43.6126C106.018 42.3434 105.662 41.1078 105.078 39.9765C104.949 39.7275 104.925 39.4375 105.01 39.1703C105.095 38.9032 105.282 38.6808 105.531 38.5521C105.78 38.4234 106.069 38.3989 106.336 38.4839C106.603 38.569 106.825 38.7568 106.953 39.0058C108.383 41.7917 108.651 45.0317 107.697 48.0148C106.743 50.9979 104.647 53.4803 101.867 54.9171C101.721 54.9924 101.56 55.0333 101.396 55.0367Z" fill="#2772FF"/>
</svg>
