<svg width="128" height="98" viewBox="0 0 128 98" fill="none" xmlns="http://www.w3.org/2000/svg">
<path d="M63.9592 97.3294C99.2829 97.3294 127.918 95.4938 127.918 93.2296C127.918 90.9653 99.2829 89.1298 63.9592 89.1298C28.6355 89.1298 0 90.9653 0 93.2296C0 95.4938 28.6355 97.3294 63.9592 97.3294Z" fill="#F5F9FF"/>
<path d="M25.5946 35.1609C24.211 33.7773 22.3345 33 20.3778 33C18.4211 33 16.5445 33.7773 15.1609 35.1609C13.7773 36.5445 13 38.4211 13 40.3778C13 42.3345 13.7773 44.211 15.1609 45.5946L20.3778 50.7901L25.5946 45.5946C26.2799 44.9096 26.8235 44.0963 27.1943 43.2012C27.5652 42.3061 27.7561 41.3467 27.7561 40.3778C27.7561 39.4088 27.5652 38.4494 27.1943 37.5543C26.8235 36.6592 26.2799 35.8459 25.5946 35.1609ZM22.4089 42.4089C21.8684 42.9442 21.1385 43.2445 20.3778 43.2445C19.617 43.2445 18.8871 42.9442 18.3466 42.4089C17.8113 41.8684 17.511 41.1385 17.511 40.3778C17.511 39.617 17.8113 38.8871 18.3466 38.3466C18.6133 38.0799 18.93 37.8683 19.2785 37.7239C19.627 37.5796 20.0005 37.5053 20.3778 37.5053C20.755 37.5053 21.1285 37.5796 21.477 37.7239C21.8255 37.8683 22.1422 38.0799 22.4089 38.3466C22.6756 38.6133 22.8872 38.93 23.0316 39.2785C23.176 39.627 23.2502 40.0005 23.2502 40.3778C23.2502 40.755 23.176 41.1285 23.0316 41.477C22.8872 41.8255 22.6756 42.1422 22.4089 42.4089Z" fill="#EBF3FF"/>
<path d="M112.242 67.822C111.117 66.6554 109.591 66 108 66C106.409 66 104.882 66.6554 103.757 67.822C102.632 68.9886 102 70.5709 102 72.2207C102 73.8705 102.632 75.4528 103.757 76.6194L108 81L112.242 76.6194C112.8 76.0418 113.242 75.3561 113.543 74.6013C113.845 73.8466 114 73.0376 114 72.2207C114 71.4037 113.845 70.5948 113.543 69.84C113.242 69.0853 112.8 68.3996 112.242 67.822ZM109.652 73.9333C109.212 74.3846 108.618 74.6379 108 74.6379C107.381 74.6379 106.788 74.3846 106.348 73.9333C105.913 73.4776 105.668 72.8621 105.668 72.2207C105.668 71.5793 105.913 70.9638 106.348 70.5081C106.565 70.2832 106.822 70.1048 107.106 69.983C107.389 69.8613 107.693 69.7987 108 69.7987C108.307 69.7987 108.61 69.8613 108.894 69.983C109.177 70.1048 109.435 70.2832 109.652 70.5081C109.868 70.733 110.041 71 110.158 71.2938C110.275 71.5877 110.336 71.9026 110.336 72.2207C110.336 72.5387 110.275 72.8537 110.158 73.1475C110.041 73.4414 109.868 73.7084 109.652 73.9333Z" fill="#EBF3FF"/>
<path d="M92.3302 58.3302C99.7548 50.9057 99.7548 38.868 92.3302 31.4435C84.9056 24.0189 72.868 24.0189 65.4434 31.4434C58.0188 38.868 58.0188 50.9057 65.4434 58.3302C72.868 65.7548 84.9056 65.7548 92.3302 58.3302Z" fill="#F5F9FF"/>
<path d="M64.3045 56.375L28.4131 90.3752L30.443 92.5181L66.3344 58.5179L64.3045 56.375Z" fill="#2772FF"/>
<path opacity="0.5" d="M64.3045 56.375L28.4131 90.3752L30.443 92.5181L66.3344 58.5179L64.3045 56.375Z" fill="#1B1F27"/>
<path d="M50.8773 75.9592L33.5324 92.3912C33.3102 92.6018 33.0488 92.7666 32.7629 92.8761C32.477 92.9857 32.1724 93.0378 31.8664 93.0296C31.5603 93.0215 31.2589 92.9531 30.9793 92.8284C30.6997 92.7037 30.4475 92.5251 30.2369 92.3029L28.6393 90.6141C28.4287 90.3919 28.2639 90.1304 28.1544 89.8446C28.0448 89.5587 27.9926 89.2541 28.0008 88.948C28.009 88.642 28.0774 88.3406 28.2021 88.061C28.3268 87.7814 28.5054 87.5291 28.7276 87.3185L46.0724 70.8866C46.5738 70.4136 47.2421 70.1585 47.9311 70.1774C48.6201 70.1962 49.2736 70.4873 49.7483 70.987L50.9655 72.2863C51.2011 72.5332 51.3858 72.824 51.5089 73.1423C51.632 73.4605 51.6912 73.7999 51.683 74.1411C51.6748 74.4822 51.5994 74.8184 51.4611 75.1303C51.3229 75.4423 51.1245 75.724 50.8773 75.9592Z" fill="#2772FF"/>
<path opacity="0.5" d="M50.8773 75.9592L33.5324 92.3912C33.3102 92.6018 33.0488 92.7666 32.7629 92.8761C32.477 92.9857 32.1724 93.0378 31.8664 93.0296C31.5603 93.0215 31.2589 92.9531 30.9793 92.8284C30.6997 92.7037 30.4475 92.5251 30.2369 92.3029L28.6393 90.6141C28.4287 90.3919 28.2639 90.1304 28.1544 89.8446C28.0448 89.5587 27.9926 89.2541 28.0008 88.948C28.009 88.642 28.0774 88.3406 28.2021 88.061C28.3268 87.7814 28.5054 87.5291 28.7276 87.3185L46.0724 70.8866C46.5738 70.4136 47.2421 70.1585 47.9311 70.1774C48.6201 70.1962 49.2736 70.4873 49.7483 70.987L50.9655 72.2863C51.2011 72.5332 51.3858 72.824 51.5089 73.1423C51.632 73.4605 51.6912 73.7999 51.683 74.1411C51.6748 74.4822 51.5994 74.8184 51.4611 75.1303C51.3229 75.4423 51.1245 75.724 50.8773 75.9592Z" fill="white"/>
<path d="M78.5617 65C78.3695 65 78.1773 65 77.9852 65C72.5737 64.9239 67.412 62.7109 63.6257 58.8437C59.8394 54.9766 57.7359 49.769 57.7739 44.3569C57.812 38.9448 59.9885 33.7673 63.8288 29.9537C67.6691 26.1402 72.8615 24 78.2734 24C83.6854 24 88.8778 26.1402 92.7181 29.9537C96.5583 33.7673 98.7349 38.9448 98.7729 44.3569C98.811 49.769 96.7075 54.9766 92.9212 58.8437C89.1349 62.7109 83.9731 64.9239 78.5617 65ZM78.5068 27.5704C74.0076 27.6338 69.716 29.4739 66.568 32.6892C63.4201 35.9046 61.6713 40.2343 61.703 44.7341C61.7347 49.2339 63.5444 53.5385 66.7373 56.7092C69.9302 59.8799 74.2473 61.6593 78.747 61.6593C83.2466 61.6593 87.5638 59.8799 90.7567 56.7092C93.9496 53.5385 95.7593 49.2339 95.791 44.7341C95.8227 40.2343 94.0739 35.9046 90.9259 32.6892C87.778 29.4739 83.4864 27.6338 78.9872 27.5704C78.8225 27.5704 78.6646 27.5704 78.5068 27.5704Z" fill="#2772FF"/>
<path d="M76.073 29.097C69.7133 30.4693 62.7288 37.7698 62.7737 45.5643C63.0637 47.2625 63.2605 48.3089 63.5712 49.6812C63.5901 49.7676 63.637 49.8455 63.7047 49.903C63.7724 49.9604 63.8571 49.9943 63.946 49.9993C64.0349 50.0044 64.123 49.9804 64.1968 49.931C64.2707 49.8816 64.3262 49.8095 64.3549 49.7258C67.407 41.1078 72.7378 34.5449 80.582 29.7591C80.6561 29.7131 80.7134 29.6445 80.7453 29.5637C80.7772 29.4828 80.7821 29.3939 80.7593 29.3101C80.7365 29.2263 80.6871 29.1519 80.6185 29.0981C80.5499 29.0443 80.4657 29.0138 80.3783 29.0112C78.9386 28.9803 77.8372 29.0146 76.073 29.097Z" fill="white"/>
<g opacity="0.5">
<path d="M94.7145 40.1687C91.0815 48.3522 84.8134 55.7402 77.398 60.9081C77.3303 60.9534 77.2505 60.9782 77.1685 60.9795L75.1765 60.9999C75.0948 61.0019 75.0145 60.9791 74.9467 60.9344C74.879 60.8897 74.8271 60.8255 74.7985 60.7507C74.7698 60.6759 74.7656 60.5942 74.7867 60.517C74.8077 60.4397 74.8528 60.3709 74.9157 60.3199C82.2318 54.0487 88.415 46.6167 93.2057 38.3361C93.2717 38.2213 93.3714 38.1285 93.4918 38.0696C93.6123 38.0107 93.748 37.9885 93.8815 38.0056C94.015 38.0228 94.1402 38.0787 94.241 38.1661C94.3417 38.2535 94.4134 38.3683 94.4468 38.4959C94.5407 38.8665 94.6346 39.2541 94.7528 39.7301C94.7901 39.8764 94.7766 40.0307 94.7145 40.1687Z" fill="white"/>
</g>
</svg>
