<svg width="145" height="86" viewBox="0 0 145 86" fill="none" xmlns="http://www.w3.org/2000/svg">
<path d="M76.9592 80.3294C112.283 80.3294 140.918 78.4938 140.918 76.2296C140.918 73.9653 112.283 72.1298 76.9592 72.1298C41.6355 72.1298 13 73.9653 13 76.2296C13 78.4938 41.6355 80.3294 76.9592 80.3294Z" fill="#F5F9FF"/>
<path d="M78.8745 14V21.7291C83.741 22.1144 88.3618 24.0258 92.0784 27.191L97.5789 21.6905C92.3826 17.1026 85.7952 14.3941 78.8745 14Z" fill="#2772FF"/>
<path opacity="0.3" d="M78.8745 14V21.7291C83.741 22.1144 88.3618 24.0258 92.0784 27.191L97.5789 21.6905C92.3826 17.1026 85.7952 14.3941 78.8745 14Z" fill="white"/>
<path d="M75.1 68.1809C69.5946 67.7289 64.4288 65.3359 60.524 61.4287C56.6192 57.5216 54.2293 52.3543 53.7806 46.8486H46.0515C46.5122 54.417 49.7256 61.5555 55.086 66.9182C60.4464 72.281 67.5834 75.4975 75.1516 75.9615L75.1 68.1809Z" fill="#2772FF"/>
<path opacity="0.7" d="M75.1 68.1809C69.5946 67.7289 64.4288 65.3359 60.524 61.4287C56.6192 57.5216 54.2293 52.3543 53.7806 46.8486H46.0515C46.5122 54.417 49.7256 61.5555 55.086 66.9182C60.4464 72.281 67.5834 75.4975 75.1516 75.9615L75.1 68.1809Z" fill="white"/>
<path d="M53.7806 43.1C54.2271 37.5948 56.6167 32.4278 60.5222 28.5222C64.4278 24.6167 69.5948 22.2271 75.1 21.7806V14.0515C67.532 14.5097 60.3936 17.7228 55.0324 23.0839C49.6712 28.4451 46.4582 35.5836 46 43.1516L53.7806 43.1Z" fill="#2772FF"/>
<path opacity="0.2" d="M53.7806 43.1C54.2271 37.5948 56.6167 32.4278 60.5222 28.5222C64.4278 24.6167 69.5948 22.2271 75.1 21.7806V14.0515C67.532 14.5097 60.3936 17.7228 55.0324 23.0839C49.6712 28.4451 46.4582 35.5836 46 43.1516L53.7806 43.1Z" fill="#1B1F27"/>
<path d="M100.22 24.3956L94.7192 29.8962C97.4953 33.1592 99.3171 37.125 99.9838 41.357C100.651 45.5889 100.137 49.9228 98.4983 53.8814C96.86 57.8399 94.161 61.2695 90.6986 63.7926C87.2362 66.3156 83.1446 67.8341 78.8745 68.181V75.91C84.6754 75.5507 90.259 73.5701 94.9898 70.1938C99.7205 66.8174 103.409 62.1808 105.634 56.8117C107.859 51.4427 108.533 45.5567 107.578 39.8236C106.623 34.0905 104.078 28.7406 100.233 24.3828L100.22 24.3956Z" fill="#2772FF"/>
<path d="M127.736 9.78143L126.926 8.64799C126.778 8.4446 126.583 8.27968 126.357 8.16702C126.132 8.05435 125.883 7.99721 125.631 8.00031H119.893C119.655 7.99521 119.42 8.05228 119.211 8.16587C119.002 8.27946 118.826 8.44565 118.701 8.64799L118.014 9.78143C117.888 9.98289 117.712 10.1484 117.504 10.2618C117.295 10.3753 117.06 10.4329 116.823 10.4291H113.396C113.205 10.4277 113.015 10.466 112.839 10.5416C112.663 10.6173 112.504 10.7286 112.373 10.8686C112.243 11.0086 112.142 11.1742 112.079 11.3549C112.015 11.5357 111.99 11.7277 112.004 11.9188L113.118 31.0836C113.142 31.4829 113.317 31.8583 113.606 32.1345C113.896 32.4108 114.279 32.5675 114.679 32.5732H141.849C142.041 32.5747 142.23 32.5363 142.406 32.4607C142.582 32.385 142.741 32.2737 142.872 32.1337C143.003 31.9937 143.103 31.8282 143.167 31.6474C143.23 31.4666 143.256 31.2747 143.241 31.0836L142.134 11.9188C142.106 11.5194 141.93 11.1448 141.64 10.869C141.35 10.5932 140.967 10.4363 140.566 10.4291H129.005C128.758 10.4276 128.514 10.3682 128.294 10.2558C128.073 10.1433 127.882 9.98089 127.736 9.78143Z" fill="#F2F7FF"/>
<path d="M143.28 12.275H118.416C117.907 12.2815 117.417 12.4741 117.04 12.8165C116.663 13.159 116.425 13.6276 116.369 14.1339L114.873 30.7338C114.848 30.9714 114.874 31.2116 114.949 31.4384C115.024 31.6651 115.147 31.8733 115.309 32.0491C115.47 32.225 115.668 32.3643 115.887 32.4581C116.107 32.5518 116.344 32.5977 116.583 32.5927H141.447C141.956 32.5848 142.445 32.3917 142.822 32.0496C143.198 31.7074 143.437 31.2396 143.494 30.7338L144.99 14.1339C145.016 13.8961 144.991 13.6555 144.916 13.4282C144.842 13.201 144.719 12.9924 144.557 12.8163C144.395 12.6403 144.198 12.5009 143.977 12.4075C143.757 12.3142 143.519 12.269 143.28 12.275Z" fill="#EBF3FF"/>
<path d="M30.8194 38.7836H30.6086C30.7028 38.2937 30.7507 37.7963 30.7516 37.2978C30.7516 35.1305 29.8789 33.0519 28.3255 31.5194C26.7721 29.9869 24.6652 29.1259 22.4683 29.1259H22.408C21.8411 28.1563 21.0205 27.3547 20.032 26.8051C19.0435 26.2554 17.9235 25.9778 16.7891 26.0014C15.6547 26.0249 14.5475 26.3487 13.5834 26.9389C12.6192 27.5291 11.8335 28.3639 11.3083 29.3562C10.2973 29.0865 9.23756 29.0462 8.2085 29.2383C7.17944 29.4304 6.20782 29.8499 5.36659 30.4653C4.52535 31.0808 3.83635 31.8762 3.35125 32.7919C2.86615 33.7076 2.59757 34.7198 2.56565 35.7526C1.49464 36.5325 0.700735 37.6263 0.297227 38.8779C-0.106281 40.1294 -0.0987694 41.4746 0.318691 42.7217C0.736151 43.9688 1.54221 45.0538 2.62186 45.8221C3.70152 46.5904 4.9996 47.0027 6.33081 47C6.92184 46.9982 7.50975 46.9157 8.07783 46.7548H29.4188C29.9906 46.959 30.6008 47.0371 31.2065 46.9837C31.8122 46.9302 32.3987 46.7466 32.9248 46.4456C33.4509 46.1447 33.9037 45.7337 34.2516 45.2416C34.5994 44.7494 34.8338 44.1881 34.9382 43.5971C35.0426 43.0061 35.0145 42.3997 34.8559 41.8205C34.6973 41.2413 34.4121 40.7034 34.0202 40.2446C33.6284 39.7858 33.1395 39.4173 32.5878 39.1649C32.0361 38.9124 31.4351 38.7823 30.8269 38.7836H30.8194Z" fill="#EBF3FF"/>
</svg>
