<svg viewBox="0 0 375 280" fill="none" xmlns="http://www.w3.org/2000/svg">
<path d="M0 0H375V250.032C221 289.302 160 290.671 0 250.032V0Z" fill="#F5F9FF"/>
<path opacity="0.8" d="M91.2263 82.4522L88.3648 78.7583C88.3648 78.7583 96.5589 79.8569 96.5133 74.9792C96.4678 70.1015 102.733 71.3346 102.733 71.3346L104.07 76.1118C104.07 76.1118 99.4606 75.718 98.5043 79.7227C97.548 83.7274 91.2263 82.4522 91.2263 82.4522Z" fill="#2772FF"/>
<path opacity="0.8" d="M274.834 90.5931L273.03 91C273.03 91 273.805 87.2962 271.58 86.0125C269.355 84.7288 270.131 82 270.131 82L272.385 82.6313C272.315 83.3119 272.409 83.9989 272.661 84.6381C272.912 85.2772 273.314 85.851 273.834 86.3141C275.602 87.8644 274.834 90.5931 274.834 90.5931Z" fill="#2772FF"/>
<path opacity="0.8" d="M90.4367 139.007L92.6892 138.409C92.6892 138.409 90.627 141.989 92.871 142.904C95.1149 143.819 93.3559 146.486 93.3559 146.486L90.9202 146.153C90.9202 146.153 91.942 144.124 90.3265 142.881C88.7111 141.639 90.4367 139.007 90.4367 139.007Z" fill="#2772FF"/>
<path opacity="0.8" d="M330.622 153.44L330.415 150L326 151.325L330.622 153.44Z" fill="#2772FF"/>
<path opacity="0.8" d="M26 168.527L25.6049 173L21 172.272L22.4508 167L26 168.527Z" fill="#2772FF"/>
<path opacity="0.8" d="M350 212.544L349.368 220L342 218.787L344.321 210L350 212.544Z" fill="#2772FF"/>
<path opacity="0.8" d="M169.875 61L172 57.7086L167 56L169.875 61Z" fill="#2772FF"/>
<circle cx="58" cy="190" r="6" fill="#EBF2FF"/>
<circle cx="42" cy="115" r="6" fill="#EBF2FF"/>
<circle cx="281" cy="145" r="6" fill="#EBF2FF"/>
<circle cx="224" cy="60" r="6" fill="#EBF2FF"/>
<circle cx="350" cy="116" r="6" fill="#EBF2FF"/>
<path d="M183.437 107.868C183.384 107.891 183.325 107.899 183.267 107.891C183.209 107.883 183.155 107.859 183.111 107.822C183.08 107.798 183.053 107.767 183.034 107.733C183.015 107.699 183.003 107.661 182.999 107.623C182.995 107.584 182.999 107.546 183.011 107.509C183.023 107.472 183.043 107.437 183.069 107.407C183.183 107.286 184.198 106.198 185.164 106.391C185.244 106.409 185.313 106.455 185.357 106.52C185.402 106.585 185.417 106.664 185.4 106.739C185.391 106.777 185.375 106.813 185.351 106.845C185.327 106.877 185.297 106.904 185.262 106.925C185.227 106.946 185.188 106.96 185.147 106.967C185.106 106.973 185.064 106.972 185.024 106.964C184.516 106.863 183.747 107.554 183.555 107.789C183.523 107.823 183.482 107.85 183.437 107.868Z" fill="#1B1F27"/>
<path d="M204.771 93.3313L204.725 93.3505C204.69 93.3591 204.653 93.3612 204.617 93.3565C204.581 93.3518 204.546 93.3405 204.515 93.3231C204.483 93.3058 204.456 93.2828 204.434 93.2554C204.412 93.2281 204.396 93.1969 204.387 93.1637C204.268 92.7523 203.399 92.4819 203.105 92.4226C203.07 92.4151 203.036 92.401 203.006 92.3812C202.976 92.3614 202.95 92.3362 202.93 92.3071C202.911 92.278 202.897 92.2456 202.891 92.2116C202.885 92.1776 202.886 92.1428 202.893 92.1092C202.901 92.0755 202.916 92.0436 202.937 92.0154C202.959 91.9872 202.985 91.9631 203.016 91.9446C203.047 91.9261 203.082 91.9135 203.118 91.9075C203.154 91.9016 203.191 91.9024 203.227 91.9098C203.375 91.9426 204.699 92.2337 204.924 93.0322C204.94 93.0911 204.933 93.1531 204.905 93.2077C204.877 93.2623 204.829 93.306 204.771 93.3313V93.3313Z" fill="#1B1F27"/>
<path d="M225.656 125.276C231.743 119.095 231.369 111.459 226.127 106.895C220.885 102.332 212.753 102.57 206.669 108.742C200.834 114.669 198.45 124.443 202.911 129.278C202.175 129.329 201.488 129.642 200.991 130.154L203.43 132.275C203.927 131.771 204.204 131.111 204.206 130.424C209.63 134.178 219.818 131.197 225.656 125.276Z" fill="#2772FF"/>
<path opacity="0.8" d="M225.656 125.276C231.743 119.095 231.369 111.459 226.127 106.895C220.885 102.332 212.753 102.57 206.669 108.742C200.834 114.669 198.45 124.443 202.911 129.278C202.175 129.329 201.488 129.642 200.991 130.154L203.43 132.275C203.927 131.771 204.204 131.111 204.206 130.424C209.63 134.178 219.818 131.197 225.656 125.276Z" fill="white"/>
<path d="M204.291 130.645C204.268 130.661 204.242 130.673 204.213 130.678C204.177 130.682 204.14 130.68 204.105 130.67C204.07 130.661 204.037 130.645 204.009 130.624C203.98 130.602 203.956 130.575 203.939 130.545C203.922 130.515 203.912 130.482 203.909 130.447C203.861 130.021 203.048 129.624 202.772 129.52C202.709 129.492 202.659 129.443 202.633 129.382C202.607 129.321 202.606 129.253 202.631 129.192C202.656 129.13 202.704 129.08 202.767 129.051C202.83 129.022 202.902 129.016 202.969 129.034C203.119 129.088 204.374 129.577 204.461 130.397C204.463 130.45 204.447 130.501 204.417 130.546C204.387 130.59 204.343 130.624 204.291 130.645V130.645Z" fill="#1B1F27"/>
<path d="M185.291 167.239L185.012 166.947C192.465 160.673 191.692 149.477 190.892 137.669C190.124 126.273 189.301 114.482 196.223 106.851L196.546 107.103C189.74 114.634 190.545 126.337 191.318 137.665C192.127 149.572 192.903 160.84 185.291 167.239Z" fill="#1B1F27"/>
<path d="M205.476 85.013C202.644 75.8208 194.508 71.7242 186.737 73.8756C178.966 76.0269 174.451 83.5733 177.292 92.7539C180.018 101.544 188.75 109.433 196.324 108.207C195.953 108.916 195.883 109.732 196.127 110.488L199.754 109.499C199.519 108.752 198.998 108.113 198.29 107.707C205.35 104.867 208.202 93.8032 205.476 85.013Z" fill="#2772FF"/>
<path opacity="0.6" d="M205.476 85.013C202.644 75.8208 194.508 71.7242 186.737 73.8756C178.966 76.0269 174.451 83.5733 177.292 92.7539C180.018 101.544 188.75 109.433 196.324 108.207C195.953 108.916 195.883 109.732 196.127 110.488L199.754 109.499C199.519 108.752 198.998 108.113 198.29 107.707C205.35 104.867 208.202 93.8032 205.476 85.013Z" fill="white"/>
<path d="M198.396 107.927C198.354 107.945 198.308 107.954 198.262 107.954C198.216 107.953 198.17 107.942 198.129 107.922C197.657 107.718 196.778 108.228 196.506 108.424C196.473 108.449 196.436 108.467 196.396 108.477C196.356 108.488 196.314 108.49 196.273 108.485C196.232 108.48 196.192 108.467 196.156 108.447C196.121 108.426 196.09 108.4 196.066 108.368C196.015 108.307 195.992 108.229 196.002 108.152C196.012 108.075 196.054 108.005 196.119 107.957C196.257 107.855 197.498 106.994 198.397 107.391C198.45 107.417 198.494 107.455 198.524 107.502C198.555 107.55 198.571 107.604 198.571 107.66C198.571 107.715 198.554 107.769 198.523 107.816C198.493 107.864 198.449 107.902 198.396 107.927V107.927Z" fill="#1B1F27"/>
<path d="M185.332 168.043L185.121 167.7C198.19 160.8 200.673 147.218 202.868 135.172C204.459 126.494 205.835 118.998 211.06 116.266L211.262 116.606C206.215 119.255 204.841 126.641 203.282 135.239C201.172 146.744 198.542 161.062 185.332 168.043Z" fill="#1B1F27"/>
<path d="M229.099 100.895C231.004 91.5057 225.761 84.3787 217.802 82.9542C209.843 81.5297 202.165 86.3379 200.262 95.7334C198.432 104.725 202.394 115.484 209.732 117.632C209.066 118.095 208.609 118.776 208.454 119.541L212.149 120.179C212.302 119.412 212.145 118.619 211.71 117.955C219.411 118.514 227.297 109.882 229.099 100.895Z" fill="#2772FF"/>
<path opacity="0.2" d="M229.099 100.895C231.004 91.5057 225.761 84.3787 217.802 82.9542C209.843 81.5297 202.165 86.3379 200.262 95.7334C198.432 104.725 202.394 115.484 209.732 117.632C209.066 118.095 208.609 118.776 208.454 119.541L212.149 120.179C212.302 119.412 212.145 118.619 211.71 117.955C219.411 118.514 227.297 109.882 229.099 100.895Z" fill="white"/>
<path d="M211.875 118.243C211.81 118.269 211.738 118.275 211.67 118.258C211.602 118.242 211.541 118.205 211.497 118.153C211.18 117.767 210.143 117.846 209.819 117.902C209.778 117.909 209.736 117.908 209.695 117.9C209.655 117.892 209.616 117.876 209.582 117.853C209.549 117.831 209.52 117.802 209.498 117.769C209.476 117.736 209.461 117.699 209.454 117.66C209.44 117.584 209.458 117.506 209.505 117.442C209.552 117.378 209.624 117.335 209.705 117.32C209.86 117.255 211.397 117.046 212.019 117.809C212.045 117.839 212.064 117.874 212.075 117.912C212.086 117.95 212.089 117.989 212.083 118.028C212.078 118.066 212.064 118.104 212.042 118.137C212.021 118.17 211.993 118.199 211.959 118.222L211.875 118.243Z" fill="#1B1F27"/>
<path d="M185.3 167.228L184.994 166.962C191.288 160.642 185.862 151.322 180.629 142.323C175.939 134.266 171.096 125.937 174.776 119.806L175.143 120.003C171.559 125.911 176.349 134.145 180.997 142.131C186.304 151.252 191.795 160.692 185.3 167.228Z" fill="#1B1F27"/>
<path d="M183.742 97.6283C180.91 88.4361 172.773 84.3395 165.003 86.4908C157.232 88.6422 152.716 96.1885 155.558 105.369C158.284 114.159 167.016 122.048 174.589 120.822C174.219 121.532 174.149 122.347 174.393 123.103L178.017 122.108C177.78 121.362 177.259 120.723 176.553 120.316C183.616 117.482 186.467 106.418 183.742 97.6283Z" fill="#2772FF"/>
<path opacity="0.4" d="M183.742 97.6283C180.91 88.4361 172.773 84.3395 165.003 86.4908C157.232 88.6422 152.716 96.1885 155.558 105.369C158.284 114.159 167.016 122.048 174.589 120.822C174.219 121.532 174.149 122.347 174.393 123.103L178.017 122.108C177.78 121.362 177.259 120.723 176.553 120.316C183.616 117.482 186.467 106.418 183.742 97.6283Z" fill="white"/>
<path d="M176.681 120.572C176.639 120.59 176.593 120.599 176.547 120.598C176.5 120.598 176.455 120.587 176.414 120.567C175.942 120.363 175.063 120.873 174.79 121.069C174.758 121.093 174.721 121.111 174.681 121.122C174.641 121.132 174.599 121.135 174.558 121.13C174.517 121.124 174.477 121.111 174.441 121.091C174.406 121.071 174.375 121.044 174.351 121.013C174.325 120.982 174.307 120.947 174.296 120.909C174.286 120.872 174.283 120.832 174.289 120.794C174.294 120.756 174.308 120.719 174.329 120.685C174.35 120.652 174.377 120.622 174.41 120.599C174.542 120.499 175.783 119.638 176.682 120.036C176.759 120.064 176.821 120.119 176.855 120.19C176.889 120.261 176.892 120.342 176.863 120.414C176.825 120.486 176.76 120.542 176.681 120.572Z" fill="#1B1F27"/>
<path d="M186.026 166.519C185.699 166.661 185.361 166.776 185.014 166.865L184.91 166.484C189.456 165.379 190.247 160.152 191.166 154.08C192.157 147.508 193.28 140.053 199.456 135.754L199.709 136.072C193.671 140.269 192.562 147.637 191.582 154.153C190.684 159.858 189.93 164.871 186.026 166.519Z" fill="#1B1F27"/>
<path d="M209.413 110.544C206.117 99.9068 196.741 95.1395 187.69 97.6116C178.638 100.084 173.464 108.846 176.757 119.477C179.914 129.66 190.023 138.784 198.795 137.375C198.372 138.185 198.285 139.115 198.552 139.983L202.75 138.834C202.479 137.968 201.876 137.228 201.056 136.757C209.266 133.534 212.57 120.727 209.413 110.544Z" fill="#2772FF"/>
<path d="M201.188 137.091C201.14 137.112 201.087 137.122 201.034 137.122C200.982 137.121 200.93 137.11 200.882 137.088C200.339 136.848 199.313 137.442 199.001 137.669C198.924 137.725 198.827 137.75 198.731 137.738C198.634 137.726 198.547 137.679 198.488 137.607C198.429 137.535 198.402 137.443 198.415 137.353C198.427 137.263 198.477 137.18 198.554 137.125C198.715 137.005 200.147 136.005 201.193 136.465C201.236 136.485 201.274 136.512 201.306 136.545C201.338 136.579 201.363 136.618 201.379 136.66C201.395 136.702 201.402 136.747 201.399 136.792C201.396 136.837 201.384 136.881 201.364 136.921C201.328 136.995 201.266 137.056 201.188 137.091V137.091Z" fill="#1B1F27"/>
</svg>
