<svg width="146" height="123" viewBox="0 0 146 123" fill="none" xmlns="http://www.w3.org/2000/svg">
<path d="M35.4624 71.2693C32.6321 71.6671 29.7474 71.2169 27.173 69.9755C24.5986 68.7341 22.4503 66.7573 20.9997 64.2951C19.549 61.8329 18.8612 58.9959 19.0232 56.1429C19.1853 53.2899 20.1899 50.549 21.91 48.2668C23.6301 45.9847 25.9885 44.2637 28.6868 43.3217C31.3852 42.3796 34.3024 42.2588 37.0694 42.9744C39.8365 43.69 42.3292 45.21 44.2322 47.342C46.1353 49.4741 47.3632 52.1225 47.7608 54.9523C48.2872 58.7456 47.2884 62.5927 44.9832 65.6511C42.678 68.7095 39.2544 70.7298 35.4624 71.2693ZM32.5354 50.2429C31.2074 50.4259 29.9635 50.9987 28.9611 51.8887C27.9588 52.7786 27.2429 53.9459 26.9042 55.2427C26.5655 56.5395 26.6191 57.9077 27.0582 59.1741C27.4974 60.4404 28.3023 61.5481 29.3713 62.3569C30.4402 63.1658 31.7251 63.6395 33.0633 63.7181C34.4016 63.7967 35.7331 63.4767 36.8894 62.7986C38.0457 62.1204 38.9749 61.1146 39.5593 59.9083C40.1437 58.7021 40.3572 57.3497 40.1727 56.0221C39.9224 54.245 38.9784 52.6393 37.5472 51.5563C36.1159 50.4733 34.314 50.001 32.5354 50.2429Z" fill="#F5F9FF"/>
<path d="M30.0454 13.862L24.613 14.6205L29.4931 49.5591L34.9255 48.8006L30.0454 13.862Z" fill="#F5F9FF"/>
<path d="M34.6408 8.99999L24.45 10.4409L25.2179 15.8701L35.4087 14.4292L34.6408 8.99999Z" fill="#F5F9FF"/>
<path d="M35.4782 16.3858L25.8921 17.7226L26.6498 23.1541L36.2358 21.8174L35.4782 16.3858Z" fill="#F5F9FF"/>
<path d="M36.8751 26.2325L28.5071 27.3994L29.2648 32.8309L37.6328 31.664L36.8751 26.2325Z" fill="#F5F9FF"/>
<path d="M73.135 122.208C113.329 122.208 145.912 120.306 145.912 117.96C145.912 115.614 113.329 113.712 73.135 113.712C32.9415 113.712 0.358154 115.614 0.358154 117.96C0.358154 120.306 32.9415 122.208 73.135 122.208Z" fill="#F5F9FF"/>
<path d="M93.8767 23.4581L73.3214 15.8868L52.9765 23.3585C50.3753 24.6203 48.095 25.373 48.095 27.8525V40.2167C48.0529 48.8726 50.3721 57.3761 54.8029 64.8121C59.1616 72.2456 65.6944 78.1641 73.5207 81.7699C81.8446 78.9916 88.0544 71.6085 91.84 65.2881C96.2739 57.8534 98.5933 49.349 98.5479 40.6926V29.6236C98.5479 26.015 96.7215 24.2883 93.8767 23.4581Z" fill="#2772FF"/>
<g opacity="0.8">
<path opacity="0.9" d="M93.8767 23.4581L73.3214 15.8868L52.9765 23.3585C50.3753 24.6203 48.095 25.373 48.095 27.8525V40.2167C48.0529 48.8726 50.3721 57.3761 54.8029 64.8121C59.1616 72.2456 65.6944 78.1641 73.5207 81.7699C81.8446 78.9916 88.0544 71.6085 91.84 65.2881C96.2739 57.8534 98.5933 49.349 98.5479 40.6926V29.6236C98.5479 26.015 96.7215 24.2883 93.8767 23.4581Z" fill="white"/>
</g>
<path d="M88.5193 55.658H83.9478V30.7969C83.9478 27.9815 82.8294 25.2815 80.8386 23.2908C78.8479 21.3 76.1479 20.1816 73.3325 20.1816C70.5172 20.1816 67.8171 21.3 65.8264 23.2908C63.8357 25.2815 62.7173 27.9815 62.7173 30.7969V55.658H58.1458V30.7969C58.1458 26.7691 59.7458 22.9063 62.5939 20.0582C65.4419 17.2101 69.3047 15.6101 73.3325 15.6101C77.3603 15.6101 81.2231 17.2101 84.0712 20.0582C86.9193 22.9063 88.5193 26.7691 88.5193 30.7969V55.658Z" fill="#2772FF"/>
<g opacity="0.4">
<path opacity="0.4" d="M88.5193 55.658H83.9478V30.7969C83.9478 27.9815 82.8294 25.2815 80.8386 23.2908C78.8479 21.3 76.1479 20.1816 73.3325 20.1816C70.5172 20.1816 67.8171 21.3 65.8264 23.2908C63.8357 25.2815 62.7173 27.9815 62.7173 30.7969V55.658H58.1458V30.7969C58.1458 26.7691 59.7458 22.9063 62.5939 20.0582C65.4419 17.2101 69.3047 15.6101 73.3325 15.6101C77.3603 15.6101 81.2231 17.2101 84.0712 20.0582C86.9193 22.9063 88.5193 26.7691 88.5193 30.7969V55.658Z" fill="#1B1F27"/>
</g>
<path d="M87.346 44.5999H59.2859C55.734 44.5999 52.8547 47.4792 52.8547 51.031V64.4246C52.8547 67.9764 55.734 70.8558 59.2859 70.8558H87.346C90.8978 70.8558 93.7771 67.9764 93.7771 64.4246V51.031C93.7771 47.4792 90.8978 44.5999 87.346 44.5999Z" fill="#2772FF"/>
<path d="M76.7417 54.3077C76.7362 53.6725 76.5541 53.0514 76.2155 52.514C75.877 51.9765 75.3955 51.544 74.825 51.2647C74.2545 50.9855 73.6174 50.8707 72.9853 50.9331C72.3532 50.9955 71.751 51.2328 71.2461 51.6182C70.7412 52.0036 70.3536 52.522 70.1267 53.1153C69.8999 53.7086 69.8427 54.3533 69.9616 54.9772C70.0805 55.6012 70.3708 56.1797 70.8 56.648C71.2292 57.1162 71.7803 57.4557 72.3915 57.6284V62.7423H74.2511V57.6284C74.9739 57.4262 75.6098 56.9912 76.0601 56.3908C76.5104 55.7904 76.7499 55.0581 76.7417 54.3077V54.3077Z" fill="white"/>
</svg>
