<svg width="137" height="123" viewBox="0 0 137 123" fill="none" xmlns="http://www.w3.org/2000/svg">
<g clip-path="url(#clip0_64_1436)">
<path d="M96.1121 29.0069C96.1182 34.7516 94.42 40.3691 91.2326 45.1486C88.0452 49.928 83.5116 53.6545 78.2057 55.8567C72.8998 58.0588 67.0598 58.6376 61.4248 57.5198C55.7898 56.402 50.613 53.6379 46.5494 49.5772C42.4858 45.5164 39.718 40.3416 38.5963 34.7073C37.4746 29.0731 38.0493 23.2328 40.2477 17.9253C42.4461 12.6178 46.1695 8.08169 50.9467 4.8909C55.7238 1.7001 61.3401 -0.00196772 67.0849 4.48137e-05C70.897 -0.00665928 74.6729 0.738895 78.1964 2.194C81.7198 3.6491 84.9215 5.78516 87.618 8.47976C90.3145 11.1744 92.4528 14.3745 93.9104 17.897C95.3679 21.4194 96.1161 25.1948 96.1121 29.0069V29.0069Z" fill="#2772FF"/>
<path d="M89.031 48.0186C86.3051 51.1647 82.9347 53.688 79.1482 55.4174C75.3617 57.1468 71.2476 58.0418 67.0848 58.0418C62.9221 58.0418 58.808 57.1468 55.0214 55.4174C51.2349 53.688 47.8645 51.1647 45.1387 48.0186C46.1901 44.2484 48.1943 40.8123 50.9584 38.0411C53.7224 35.2699 57.1533 33.2569 60.9208 32.1957C58.9062 30.8706 57.3727 28.9311 56.5481 26.6652C55.7234 24.3993 55.6516 21.9278 56.3432 19.6178C57.0348 17.3078 58.453 15.2825 60.3872 13.8426C62.3214 12.4026 64.6684 11.6249 67.0797 11.6249C69.491 11.6249 71.8381 12.4026 73.7722 13.8426C75.7064 15.2825 77.1246 17.3078 77.8162 19.6178C78.5079 21.9278 78.436 24.3993 77.6114 26.6652C76.7867 28.9311 75.2533 30.8706 73.2387 32.1957C77.0067 33.258 80.4382 35.2713 83.2038 38.0422C85.9693 40.8131 87.976 44.2485 89.031 48.0186V48.0186Z" fill="white"/>
<rect x="9" y="71.4766" width="119.5" height="32.3879" rx="10" fill="#D4E3FF"/>
<rect x="16.8179" y="78.1776" width="102.748" height="7.81776" rx="3.90888" fill="white"/>
<rect x="16.8179" y="90.4626" width="75.9439" height="5.58411" rx="2.79206" fill="white"/>
<path d="M68.5 122.501C106.193 122.501 136.749 120.717 136.749 118.517C136.749 116.316 106.193 114.532 68.5 114.532C30.807 114.532 0.250732 116.316 0.250732 118.517C0.250732 120.717 30.807 122.501 68.5 122.501Z" fill="#F5F9FF"/>
<path d="M126.126 90C123.926 90 121.775 90.6525 119.945 91.8751C118.115 93.0977 116.689 94.8353 115.847 96.8684C115.005 98.9014 114.784 101.139 115.214 103.297C115.643 105.455 116.703 107.438 118.259 108.994C119.815 110.55 121.797 111.609 123.956 112.039C126.114 112.468 128.351 112.248 130.384 111.405C132.417 110.563 134.155 109.137 135.377 107.308C136.6 105.478 137.252 103.327 137.252 101.126C137.252 98.1753 136.08 95.3453 133.994 93.2588C131.907 91.1722 129.077 90 126.126 90ZM126.126 110.812C124.211 110.812 122.338 110.244 120.745 109.179C119.152 108.115 117.911 106.602 117.178 104.833C116.445 103.063 116.253 101.115 116.627 99.2366C117.001 97.3578 117.923 95.6321 119.278 94.2775C120.632 92.923 122.358 92.0005 124.237 91.6268C126.115 91.2531 128.063 91.4449 129.833 92.178C131.602 92.911 133.115 94.1524 134.179 95.7452C135.244 97.338 135.812 99.2106 135.812 101.126C135.812 103.695 134.791 106.158 132.975 107.975C131.158 109.791 128.695 110.812 126.126 110.812Z" fill="#2772FF"/>
<path d="M126.126 90C123.926 90 121.775 90.6525 119.945 91.8751C118.115 93.0977 116.689 94.8353 115.847 96.8684C115.005 98.9014 114.784 101.139 115.214 103.297C115.643 105.455 116.703 107.438 118.259 108.994C119.815 110.55 121.797 111.609 123.956 112.039C126.114 112.468 128.351 112.248 130.384 111.405C132.417 110.563 134.155 109.137 135.377 107.308C136.6 105.478 137.252 103.327 137.252 101.126C137.252 98.1753 136.08 95.3453 133.994 93.2588C131.907 91.1722 129.077 90 126.126 90ZM126.126 110.812C124.211 110.812 122.338 110.244 120.745 109.179C119.152 108.115 117.911 106.602 117.178 104.833C116.445 103.063 116.253 101.115 116.627 99.2366C117.001 97.3578 117.923 95.6321 119.278 94.2775C120.632 92.923 122.358 92.0005 124.237 91.6268C126.115 91.2531 128.063 91.4449 129.833 92.178C131.602 92.911 133.115 94.1524 134.179 95.7452C135.244 97.338 135.812 99.2106 135.812 101.126C135.812 103.695 134.791 106.158 132.975 107.975C131.158 109.791 128.695 110.812 126.126 110.812Z" fill="#2772FF"/>
<path d="M126.126 110.807C131.473 110.807 135.808 106.473 135.808 101.126C135.808 95.7791 131.473 91.4446 126.126 91.4446C120.779 91.4446 116.445 95.7791 116.445 101.126C116.445 106.473 120.779 110.807 126.126 110.807Z" fill="#2772FF"/>
<path d="M126.126 110.807C131.473 110.807 135.808 106.473 135.808 101.126C135.808 95.7791 131.473 91.4446 126.126 91.4446C120.779 91.4446 116.445 95.7791 116.445 101.126C116.445 106.473 120.779 110.807 126.126 110.807Z" fill="#2772FF"/>
<path d="M125.328 106.545C124.937 106.936 124.304 106.936 123.914 106.545L119.647 102.278C119.256 101.887 119.263 101.247 119.654 100.857V100.857C120.045 100.467 120.683 100.461 121.073 100.852L123.914 103.692C124.304 104.082 124.937 104.082 125.328 103.692L131.181 97.8389C131.572 97.448 132.212 97.4546 132.602 97.8461V97.8461C132.992 98.2368 132.998 98.8754 132.607 99.2655L125.328 106.545Z" fill="#F5F9FF"/>
</g>
<defs>
<clipPath id="clip0_64_1436">
<rect width="137" height="123" fill="white"/>
</clipPath>
</defs>
</svg>
