<svg width="146" height="108" viewBox="0 0 146 108" fill="none" xmlns="http://www.w3.org/2000/svg">
<path d="M73.1353 107.208C113.329 107.208 145.912 105.306 145.912 102.96C145.912 100.614 113.329 98.7116 73.1353 98.7116C32.9417 98.7116 0.358398 100.614 0.358398 102.96C0.358398 105.306 32.9417 107.208 73.1353 107.208Z" fill="#F5F9FF"/>
<path d="M19.8446 55.675C20.2092 55.675 20.5294 55.6008 20.805 55.4524C21.0827 55.304 21.299 55.0951 21.4538 54.8259C21.6107 54.5566 21.6891 54.2407 21.6891 53.8781V51H20.9131V53.8591C20.9131 54.0859 20.8633 54.281 20.7637 54.4442C20.6661 54.6075 20.5357 54.7336 20.3725 54.8227C20.2113 54.9096 20.0354 54.9531 19.8446 54.9531C19.6601 54.9531 19.4862 54.9096 19.323 54.8227C19.1597 54.7358 19.0272 54.6107 18.9255 54.4474C18.8258 54.2842 18.776 54.088 18.776 53.8591V51L18 51.0064V53.8781C18 54.2407 18.0774 54.5566 18.2322 54.8259C18.3891 55.0951 18.6064 55.304 18.8841 55.4524C19.1619 55.6008 19.482 55.675 19.8446 55.675Z" fill="#A8B0C0"/>
<path d="M23.904 55.675C24.3471 55.675 24.6938 55.5764 24.944 55.3792C25.1963 55.1821 25.3224 54.9107 25.3224 54.5651C25.3224 54.2979 25.2376 54.088 25.068 53.9354C24.9005 53.7827 24.6111 53.6534 24.1998 53.5474C23.9326 53.4796 23.7312 53.4223 23.5955 53.3757C23.462 53.329 23.3729 53.2824 23.3284 53.2357C23.2839 53.1891 23.2616 53.1329 23.2616 53.0672C23.2616 52.9527 23.3167 52.8636 23.427 52.8C23.5372 52.7343 23.6825 52.7057 23.8627 52.7142C24.0493 52.7248 24.1987 52.7725 24.3111 52.8573C24.4256 52.9421 24.4934 53.0576 24.5146 53.2039L25.297 53.064C25.2546 52.7545 25.103 52.5085 24.8422 52.3262C24.5814 52.1417 24.2507 52.0495 23.85 52.0495C23.4408 52.0495 23.1132 52.1449 22.8673 52.3357C22.6213 52.5265 22.4983 52.7831 22.4983 53.1053C22.4983 53.3619 22.5842 53.5644 22.7559 53.7128C22.9298 53.8612 23.2319 53.9916 23.6623 54.1039C23.921 54.1718 24.1118 54.229 24.2348 54.2757C24.3599 54.3202 24.4415 54.3658 24.4797 54.4124C24.5178 54.4591 24.5369 54.5216 24.5369 54.6001C24.5369 54.7273 24.486 54.828 24.3842 54.9022C24.2825 54.9743 24.1404 55.0103 23.9581 55.0103C23.7482 55.0103 23.5733 54.9616 23.4333 54.864C23.2955 54.7665 23.2075 54.6329 23.1694 54.4633L22.387 54.5842C22.4443 54.9298 22.6054 55.198 22.8704 55.3888C23.1355 55.5796 23.48 55.675 23.904 55.675Z" fill="#A8B0C0"/>
<path d="M27.5805 55.675C27.9113 55.675 28.2134 55.5902 28.4869 55.4206C28.7625 55.2488 28.9661 55.0071 29.0975 54.6955L28.3406 54.4665C28.188 54.793 27.9197 54.9563 27.536 54.9563C27.2752 54.9563 27.0696 54.881 26.919 54.7305C26.7685 54.5778 26.6784 54.3594 26.6487 54.0753H29.1357C29.1654 53.6619 29.1198 53.3036 28.9989 53.0004C28.8781 52.6972 28.6926 52.4629 28.4424 52.2976C28.1943 52.1322 27.8922 52.0495 27.536 52.0495C27.1989 52.0495 26.9021 52.1258 26.6455 52.2785C26.389 52.429 26.1886 52.6431 26.0444 52.9209C25.9003 53.1986 25.8282 53.5251 25.8282 53.9004C25.8282 54.2481 25.9013 54.5555 26.0476 54.8227C26.196 55.0898 26.4017 55.2987 26.6646 55.4492C26.9275 55.5997 27.2328 55.675 27.5805 55.675ZM27.5678 52.7205C27.8053 52.7205 27.9876 52.7831 28.1148 52.9082C28.2441 53.0311 28.3258 53.2273 28.3597 53.4965H26.6678C26.7589 52.9792 27.059 52.7205 27.5678 52.7205Z" fill="#A8B0C0"/>
<path d="M29.8453 55.5796H30.6149V53.8336C30.6149 53.6343 30.6509 53.4573 30.723 53.3025C30.7972 53.1477 30.9128 53.028 31.0697 52.9431C31.1757 52.8817 31.2944 52.8456 31.4259 52.835C31.5573 52.8223 31.675 52.8308 31.7789 52.8605V52.1449C31.6241 52.1216 31.4651 52.1248 31.3018 52.1544C31.1386 52.182 30.9933 52.2392 30.8661 52.3262C30.7941 52.3707 30.7294 52.4248 30.6721 52.4884C30.6149 52.5499 30.5651 52.6188 30.5227 52.6951V52.1449H29.8453V55.5796Z" fill="#A8B0C0"/>
<path d="M32.3794 55.5796H33.1554V53.8145C33.1554 53.5368 33.1946 53.3227 33.2731 53.1721C33.3536 53.0195 33.4554 52.9145 33.5784 52.8573C33.7035 52.7979 33.8307 52.7682 33.96 52.7682C34.1423 52.7682 34.2876 52.8085 34.3957 52.8891C34.5038 52.9675 34.5833 53.0682 34.6342 53.1912C34.6872 53.3121 34.7211 53.4382 34.736 53.5697C34.7529 53.7011 34.7614 53.8198 34.7614 53.9259V55.5796H35.5374V53.6619C35.5374 53.5813 35.53 53.4743 35.5151 53.3407C35.5024 53.2071 35.4727 53.0661 35.4261 52.9177C35.3795 52.7693 35.3074 52.6294 35.2098 52.4979C35.1123 52.3643 34.9798 52.2562 34.8123 52.1735C34.6469 52.0887 34.4381 52.0463 34.1858 52.0463C33.9377 52.0463 33.7194 52.0898 33.5307 52.1767C33.3441 52.2615 33.1883 52.3781 33.0632 52.5265V52.1449H32.3794V55.5796Z" fill="#A8B0C0"/>
<path d="M37.3278 55.675C37.6013 55.675 37.8334 55.6305 38.0242 55.5414C38.2172 55.4503 38.3868 55.3093 38.5331 55.1185V55.5796H39.2041V53.4711C39.2041 53.3227 39.1978 53.1859 39.185 53.0608C39.1723 52.9336 39.1352 52.8096 39.0737 52.6887C38.9614 52.4619 38.7886 52.2986 38.5553 52.199C38.3242 52.0993 38.056 52.0495 37.7507 52.0495C37.3479 52.0495 37.0267 52.1375 36.7871 52.3135C36.5475 52.4894 36.3853 52.7226 36.3005 53.0131L37.0002 53.2326C37.0574 53.0566 37.1581 52.9325 37.3023 52.8605C37.4465 52.7884 37.596 52.7523 37.7507 52.7523C37.984 52.7523 38.1557 52.8 38.2659 52.8954C38.3762 52.9887 38.4387 53.134 38.4536 53.3311C38.1525 53.3757 37.8726 53.4191 37.614 53.4615C37.3574 53.5018 37.1391 53.5516 36.9588 53.611C36.6875 53.7043 36.4892 53.8368 36.3641 54.0085C36.239 54.1782 36.1765 54.388 36.1765 54.6382C36.1765 54.8269 36.22 54.9997 36.3069 55.1566C36.3959 55.3135 36.5263 55.4397 36.6981 55.5351C36.8698 55.6284 37.0797 55.675 37.3278 55.675ZM37.4804 55.0644C37.3002 55.0644 37.1624 55.023 37.067 54.9404C36.9737 54.8577 36.927 54.7538 36.927 54.6287C36.927 54.5163 36.9631 54.4252 37.0352 54.3552C37.1094 54.2852 37.2122 54.2259 37.3437 54.1771C37.4645 54.1368 37.6097 54.1018 37.7794 54.0721C37.949 54.0403 38.1705 54.0032 38.444 53.9608C38.4419 54.0414 38.4366 54.1315 38.4281 54.2312C38.4196 54.3287 38.3995 54.4167 38.3677 54.4951C38.3423 54.5736 38.2924 54.6573 38.2182 54.7464C38.1461 54.8354 38.0486 54.9107 37.9256 54.9722C37.8027 55.0336 37.6543 55.0644 37.4804 55.0644Z" fill="#A8B0C0"/>
<path d="M40.0257 55.5796H40.7985V53.4647C40.7985 53.2506 40.8568 53.0767 40.9734 52.9431C41.0922 52.8096 41.2491 52.7428 41.4441 52.7428C41.6455 52.7428 41.8046 52.8096 41.9212 52.9431C42.0378 53.0767 42.0961 53.2633 42.0961 53.5029V55.5796H42.8593V53.4647C42.8593 53.2379 42.9208 53.0608 43.0438 52.9336C43.1689 52.8064 43.3237 52.7428 43.5081 52.7428C43.7053 52.7428 43.8622 52.8096 43.9788 52.9431C44.0975 53.0746 44.1569 53.258 44.1569 53.4933V55.5796H44.9233V53.2993C44.9233 52.9262 44.8216 52.6262 44.618 52.3993C44.4166 52.1725 44.1261 52.059 43.7466 52.059C43.524 52.059 43.3205 52.1078 43.136 52.2053C42.9516 52.3029 42.8063 52.4364 42.7003 52.606C42.6092 52.4385 42.4798 52.306 42.3123 52.2085C42.1448 52.1089 41.9402 52.059 41.6985 52.059C41.4929 52.059 41.3031 52.1004 41.1293 52.1831C40.9575 52.2636 40.8155 52.3749 40.7031 52.517V52.1449H40.0257V55.5796Z" fill="#A8B0C0"/>
<path d="M47.2585 55.675C47.5892 55.675 47.8913 55.5902 48.1648 55.4206C48.4405 55.2488 48.644 55.0071 48.7754 54.6955L48.0185 54.4665C47.8659 54.793 47.5977 54.9563 47.2139 54.9563C46.9531 54.9563 46.7475 54.881 46.597 54.7305C46.4464 54.5778 46.3563 54.3594 46.3266 54.0753H48.8136C48.8433 53.6619 48.7977 53.3036 48.6769 53.0004C48.556 52.6972 48.3705 52.4629 48.1203 52.2976C47.8722 52.1322 47.5701 52.0495 47.2139 52.0495C46.8768 52.0495 46.58 52.1258 46.3235 52.2785C46.0669 52.429 45.8666 52.6431 45.7224 52.9209C45.5782 53.1986 45.5061 53.5251 45.5061 53.9004C45.5061 54.2481 45.5793 54.5555 45.7256 54.8227C45.874 55.0898 46.0796 55.2987 46.3425 55.4492C46.6054 55.5997 46.9107 55.675 47.2585 55.675ZM47.2457 52.7205C47.4832 52.7205 47.6655 52.7831 47.7927 52.9082C47.9221 53.0311 48.0037 53.2273 48.0376 53.4965H46.3457C46.4369 52.9792 46.7369 52.7205 47.2457 52.7205Z" fill="#A8B0C0"/>
<path d="M97 22.9758C97.0048 27.5262 95.6597 31.9757 93.135 35.7614C90.6103 39.5471 87.0194 42.4988 82.8166 44.2431C78.6139 45.9874 73.9882 46.4458 69.5248 45.5605C65.0614 44.6751 60.961 42.4856 57.7423 39.2692C54.5236 36.0527 52.3312 31.9538 51.4427 27.4911C50.5542 23.0283 51.0094 18.4023 52.7508 14.1983C54.4921 9.99436 57.4413 6.40137 61.2252 3.87399C65.0092 1.34662 69.4577 -0.0015586 74.0081 3.54962e-05C77.0275 -0.0052747 80.0184 0.585265 82.8093 1.73783C85.6001 2.89039 88.1361 4.58232 90.2719 6.71667C92.4078 8.85101 94.1015 11.3858 95.256 14.1759C96.4105 16.9659 97.0032 19.9563 97 22.9758V22.9758Z" fill="#2772FF"/>
<path d="M91.3913 38.0346C89.2322 40.5267 86.5626 42.5253 83.5633 43.8951C80.5641 45.265 77.3054 45.9739 74.0082 45.9739C70.7109 45.9739 67.4522 45.265 64.453 43.8951C61.4537 42.5253 58.7841 40.5267 56.625 38.0346C57.4578 35.0483 59.0453 32.3267 61.2347 30.1317C63.424 27.9367 66.1416 26.3422 69.1257 25.5017C67.53 24.452 66.3154 22.9158 65.6622 21.121C65.009 19.3262 64.9521 17.3686 65.4999 15.5389C66.0477 13.7092 67.1711 12.1049 68.7031 10.9644C70.2351 9.82389 72.0942 9.20789 74.0041 9.20789C75.9141 9.20789 77.7731 9.82389 79.3051 10.9644C80.8372 12.1049 81.9605 13.7092 82.5083 15.5389C83.0562 17.3686 82.9992 19.3262 82.3461 21.121C81.6929 22.9158 80.4782 24.452 78.8825 25.5017C81.8671 26.3431 84.5852 27.9378 86.7757 30.1325C88.9663 32.3273 90.5557 35.0485 91.3913 38.0346V38.0346Z" fill="white"/>
<path d="M124.503 78H25.497C23.5087 78 21.6018 77.0925 20.1958 75.4772C18.7899 73.8619 18 71.671 18 69.3866V69.3866C18 67.1022 18.7899 64.9113 20.1958 63.296C21.6018 61.6807 23.5087 60.7732 25.497 60.7732H124.503C126.491 60.7732 128.398 61.6807 129.804 63.296C131.21 64.9113 132 67.1022 132 69.3866V69.3866C132 71.671 131.21 73.8619 129.804 75.4772C128.398 77.0925 126.491 78 124.503 78V78Z" fill="#D4E3FF"/>
<rect x="24" y="66.3866" width="68" height="6" rx="3" fill="white"/>
<path d="M98.1 39.55C98.1 40.8455 97.7159 42.1119 96.9961 43.189C96.2764 44.2661 95.2534 45.1057 94.0566 45.6014C92.8597 46.0972 91.5427 46.2269 90.2722 45.9742C89.0016 45.7214 87.8345 45.0976 86.9185 44.1815C86.0024 43.2655 85.3786 42.0984 85.1259 40.8279C84.8731 39.5573 85.0028 38.2403 85.4986 37.0434C85.9944 35.8466 86.8339 34.8236 87.911 34.1039C88.9882 33.3842 90.2545 33 91.55 33C93.2872 33 94.9532 33.6901 96.1816 34.9185C97.4099 36.1468 98.1 37.8128 98.1 39.55V39.55Z" fill="white"/>
<path d="M97.14 39.55C97.14 40.6556 96.8121 41.7364 96.1979 42.6557C95.5836 43.5749 94.7106 44.2914 93.6892 44.7145C92.6677 45.1376 91.5438 45.2483 90.4594 45.0326C89.375 44.8169 88.379 44.2845 87.5972 43.5027C86.8155 42.721 86.2831 41.7249 86.0674 40.6406C85.8517 39.5562 85.9624 38.4323 86.3855 37.4108C86.8086 36.3894 87.5251 35.5163 88.4443 34.9021C89.3636 34.2879 90.4444 33.96 91.55 33.96C93.0325 33.96 94.4544 34.549 95.5027 35.5973C96.551 36.6456 97.14 38.0675 97.14 39.55Z" fill="#2772FF"/>
<path d="M91.9767 41.5725C91.6298 42.0487 90.9485 42.1232 90.5068 41.7334L88.7244 40.1604C88.5176 39.9778 88.4977 39.6623 88.6799 39.4552V39.4552C88.8623 39.248 89.1781 39.2278 89.3854 39.4101L90.7584 40.6179C90.9794 40.8123 91.3196 40.7747 91.4928 40.5368L93.7152 37.485C93.878 37.2614 94.1914 37.2121 94.4151 37.375V37.375C94.6388 37.5379 94.688 37.8513 94.525 38.075L91.9767 41.5725Z" fill="white"/>
</svg>
